<svg width="60" height="60" viewBox="0 0 60 60" fill="none" xmlns="http://www.w3.org/2000/svg">
<rect width="60" height="60" rx="30" fill="#00A7A0"/>
<g clip-path="url(#clip0_321_654)">
<path d="M36.8586 41.2865C35.8876 41.2865 34.5236 40.9353 32.481 39.7941C29.9972 38.4013 28.0761 37.1153 25.6057 34.6514C23.2239 32.2711 22.0648 30.73 20.4426 27.7781C18.61 24.4452 18.9224 22.6981 19.2716 21.9514C19.6875 21.059 20.3013 20.5252 21.0948 19.9954C21.5454 19.7002 22.0224 19.447 22.5195 19.2393C22.5692 19.2179 22.6155 19.1975 22.6568 19.1791C22.903 19.0682 23.2761 18.9005 23.7487 19.0796C24.0641 19.198 24.3456 19.4403 24.7864 19.8755C25.6903 20.767 26.9254 22.7523 27.3811 23.7273C27.6871 24.3845 27.8895 24.8183 27.89 25.3048C27.89 25.8743 27.6035 26.3136 27.2558 26.7877C27.1906 26.8767 27.1259 26.9618 27.0632 27.0444C26.6847 27.5418 26.6016 27.6856 26.6563 27.9423C26.7673 28.4581 27.5945 29.9938 28.9541 31.3503C30.3136 32.7069 31.805 33.4819 32.3228 33.5924C32.5905 33.6496 32.7372 33.563 33.2506 33.171C33.3242 33.1148 33.3998 33.0566 33.4789 32.9984C34.0092 32.6039 34.4281 32.3248 34.9842 32.3248H34.9872C35.4712 32.3248 35.8856 32.5348 36.5721 32.881C37.4675 33.3327 39.5126 34.552 40.4095 35.4568C40.8457 35.8966 41.089 36.1771 41.2079 36.492C41.387 36.9661 41.2183 37.3377 41.1084 37.5864C41.09 37.6277 41.0696 37.673 41.0482 37.7232C40.8388 38.2195 40.5842 38.6954 40.2876 39.145C39.7588 39.9359 39.223 40.5483 38.3286 40.9646C37.8693 41.1819 37.3667 41.292 36.8586 41.2865Z" fill="white"/>
</g>
<defs>
<clipPath id="clip0_321_654">
<rect width="25.7143" height="25.7143" fill="white" transform="translate(17.1431 17.1431)"/>
</clipPath>
</defs>
</svg>
