<svg width="24" height="24" viewBox="0 0 24 24" fill="none" xmlns="http://www.w3.org/2000/svg">
<g clip-path="url(#clip0_341_793)">
<g clip-path="url(#clip1_341_793)">
<path fill-rule="evenodd" clip-rule="evenodd" d="M-0.000488281 11.9299C-0.000488281 8.74733 1.26379 5.69509 3.51423 3.44465C5.76467 1.19421 8.81691 -0.0700684 11.9995 -0.0700684C15.1821 -0.0700684 18.2344 1.19421 20.4848 3.44465C22.7352 5.69509 23.9995 8.74733 23.9995 11.9299C23.9995 15.1125 22.7352 18.1648 20.4848 20.4152C18.2344 22.6656 15.1821 23.9299 11.9995 23.9299C8.81691 23.9299 5.76467 22.6656 3.51423 20.4152C1.26379 18.1648 -0.000488281 15.1125 -0.000488281 11.9299ZM11.3147 17.0659L18.2235 8.42913L16.9755 7.43073L11.0843 14.7923L6.91151 11.3155L5.88751 12.5443L11.3147 17.0659Z" fill="#00A7A0"/>
</g>
</g>
<defs>
<clipPath id="clip0_341_793">
<rect width="24" height="24" fill="white"/>
</clipPath>
<clipPath id="clip1_341_793">
<rect width="24" height="24" fill="white" transform="translate(-0.000488281 -0.0700684)"/>
</clipPath>
</defs>
</svg>
