<svg width="70" height="70" viewBox="0 0 70 70" fill="none" xmlns="http://www.w3.org/2000/svg">
<rect width="70" height="70" rx="35" fill="#EFFEFC"/>
<g clip-path="url(#clip0_362_174)">
<g clip-path="url(#clip1_362_174)">
<path d="M20.7483 23.6636V26.1623C20.7483 28.2336 22.427 29.9123 24.4983 29.9123H27.4145L29.9083 31.5711C30.1408 31.7198 30.392 31.7873 30.637 31.7873C31.3445 31.7873 31.9983 31.2248 31.9983 30.4273V23.6661C31.9983 21.6036 30.3108 19.9161 28.2483 19.9148H24.4983C22.427 19.9123 20.7483 21.5923 20.7483 23.6636ZM47.3695 37.2686L46.8058 36.9436C46.9333 36.2636 46.997 35.5836 46.997 34.9123C46.997 34.2411 46.9333 33.5598 46.8058 32.8811L47.3695 32.5561C49.1645 31.5236 49.7833 29.2311 48.7508 27.4361C47.7183 25.6398 45.427 25.0211 43.6308 26.0536L43.0683 26.3773C42.017 25.4761 40.8058 24.7773 39.497 24.3161V23.6636C39.497 21.5923 37.8183 19.9136 35.747 19.9136C34.9658 19.9136 34.2408 20.1536 33.6408 20.5623C34.1845 21.5011 34.497 22.5573 34.497 23.6686V28.9261C34.8808 28.7586 35.302 28.6623 35.747 28.6623C37.4733 28.6623 38.872 30.0611 38.872 31.7873C38.872 33.5136 37.4733 34.9123 35.747 34.9123C34.6108 34.9123 33.6258 34.2998 33.0783 33.3923C32.4108 33.9436 31.567 34.2873 30.6358 34.2873C29.902 34.2873 29.1833 34.0761 28.5595 33.6773L26.6583 32.4123H24.8258C24.5645 33.2136 24.507 34.0923 24.497 34.9123C24.497 35.5836 24.5608 36.2648 24.6883 36.9436L24.1245 37.2673C22.3295 38.2998 21.7108 40.5923 22.7433 42.3873C23.7758 44.1836 26.0683 44.8023 27.8633 43.7698L28.4258 43.4461C29.477 44.3473 30.6883 45.0461 31.997 45.5073V46.1598C31.997 48.2311 33.6758 49.9098 35.747 49.9098C37.8183 49.9098 39.497 48.2311 39.497 46.1598V45.5073C40.8058 45.0448 42.017 44.3461 43.0683 43.4461L43.6308 43.7698C45.4258 44.8023 47.7183 44.1836 48.7508 42.3873C49.7833 40.5911 49.1645 38.2998 47.3695 37.2673V37.2686ZM35.747 41.1623C33.9458 41.1623 32.347 40.3761 31.2133 39.1511C31.9845 37.3986 33.707 36.1623 35.747 36.1623C37.787 36.1623 39.5095 37.3986 40.282 39.1523C39.1483 40.3773 37.5483 41.1623 35.747 41.1623Z" fill="#00A7A0"/>
</g>
</g>
<defs>
<clipPath id="clip0_362_174">
<rect width="30" height="30" fill="white" transform="translate(20 20)"/>
</clipPath>
<clipPath id="clip1_362_174">
<rect width="30" height="30" fill="white" transform="translate(19.9995 19.9124)"/>
</clipPath>
</defs>
</svg>
