<svg width="60" height="60" viewBox="0 0 60 60" fill="none" xmlns="http://www.w3.org/2000/svg">
<rect width="60" height="60" rx="30" fill="#00A7A0"/>
<g clip-path="url(#clip0_321_650)">
<path d="M39.0574 21.2288H21.2288C20.0031 21.2288 19.0114 22.2316 19.0114 23.4573L19.0002 36.8288C19.0002 38.0545 20.0031 39.0573 21.2288 39.0573H39.0574C40.2831 39.0573 41.286 38.0545 41.286 36.8288V23.4573C41.286 22.2316 40.2831 21.2288 39.0574 21.2288ZM38.6117 25.9645L30.7337 30.8896C30.3771 31.1125 29.9091 31.1125 29.5525 30.8896L21.6745 25.9645C21.5628 25.9018 21.465 25.817 21.3869 25.7154C21.3089 25.6137 21.2523 25.4973 21.2205 25.3732C21.1888 25.2491 21.1826 25.1198 21.2022 24.9932C21.2219 24.8665 21.2671 24.7452 21.335 24.6366C21.4029 24.5279 21.4921 24.4342 21.5973 24.361C21.7025 24.2878 21.8215 24.2368 21.947 24.2109C22.0725 24.1851 22.2019 24.1849 22.3275 24.2105C22.453 24.2361 22.572 24.287 22.6774 24.3599L30.1431 29.0288L37.6088 24.3599C37.7142 24.287 37.8332 24.2361 37.9588 24.2105C38.0843 24.1849 38.2137 24.1851 38.3392 24.2109C38.4647 24.2368 38.5837 24.2878 38.6889 24.361C38.7941 24.4342 38.8833 24.5279 38.9512 24.6366C39.0191 24.7452 39.0643 24.8665 39.084 24.9932C39.1036 25.1198 39.0974 25.2491 39.0657 25.3732C39.0339 25.4973 38.9773 25.6137 38.8993 25.7154C38.8212 25.817 38.7234 25.9018 38.6117 25.9645Z" fill="white"/>
</g>
<defs>
<clipPath id="clip0_321_650">
<rect width="25.7143" height="25.7143" fill="white" transform="translate(17.1431 17.1431)"/>
</clipPath>
</defs>
</svg>
