<svg width="17" height="17" viewBox="0 0 17 17" fill="none" xmlns="http://www.w3.org/2000/svg">
<path d="M8.28551 11.7141C9.19482 11.7141 10.0669 11.3529 10.7099 10.7099C11.3529 10.0669 11.7141 9.19482 11.7141 8.28551C11.7141 7.37619 11.3529 6.50412 10.7099 5.86114C10.0669 5.21816 9.19482 4.85693 8.28551 4.85693C7.37619 4.85693 6.50412 5.21816 5.86114 5.86114C5.21816 6.50412 4.85693 7.37619 4.85693 8.28551C4.85693 9.19482 5.21816 10.0669 5.86114 10.7099C6.50412 11.3529 7.37619 11.7141 8.28551 11.7141Z" stroke="#00A7A0" stroke-width="1.14286" stroke-linecap="round" stroke-linejoin="round"/>
<path d="M0.571289 11.7141V4.857C0.571289 3.72036 1.02282 2.63027 1.82655 1.82655C2.63027 1.02282 3.72036 0.571289 4.857 0.571289H11.7141C12.8508 0.571289 13.9409 1.02282 14.7446 1.82655C15.5483 2.63027 15.9999 3.72036 15.9999 4.857V11.7141C15.9999 12.8508 15.5483 13.9409 14.7446 14.7446C13.9409 15.5483 12.8508 15.9999 11.7141 15.9999H4.857C3.72036 15.9999 2.63027 15.5483 1.82655 14.7446C1.02282 13.9409 0.571289 12.8508 0.571289 11.7141Z" stroke="#00A7A0" stroke-width="1.14286"/>
<path d="M13 3.57939L13.0083 3.57031" stroke="#00A7A0" stroke-width="1.14286" stroke-linecap="round" stroke-linejoin="round"/>
</svg>
