<svg width="60" height="60" viewBox="0 0 60 60" fill="none" xmlns="http://www.w3.org/2000/svg">
<rect width="60" height="60" rx="30" fill="#EFFEFC"/>
<g clip-path="url(#clip0_321_517)">
<path d="M30.5713 35.5718C31.9353 35.5718 33.2434 35.03 34.2079 34.0655C35.1723 33.1011 35.7142 31.793 35.7142 30.429C35.7142 29.065 35.1723 27.7569 34.2079 26.7924C33.2434 25.828 31.9353 25.2861 30.5713 25.2861C29.2074 25.2861 27.8992 25.828 26.9348 26.7924C25.9703 27.7569 25.4285 29.065 25.4285 30.429C25.4285 31.793 25.9703 33.1011 26.9348 34.0655C27.8992 35.03 29.2074 35.5718 30.5713 35.5718Z" stroke="#00A7A0" stroke-width="1.71429" stroke-linecap="round" stroke-linejoin="round"/>
<path d="M19 35.5717V25.286C19 23.581 19.6773 21.9459 20.8829 20.7403C22.0885 19.5347 23.7236 18.8574 25.4286 18.8574H35.7143C37.4192 18.8574 39.0544 19.5347 40.26 20.7403C41.4656 21.9459 42.1429 23.581 42.1429 25.286V35.5717C42.1429 37.2767 41.4656 38.9118 40.26 40.1174C39.0544 41.323 37.4192 42.0003 35.7143 42.0003H25.4286C23.7236 42.0003 22.0885 41.323 20.8829 40.1174C19.6773 38.9118 19 37.2767 19 35.5717Z" stroke="#00A7A0" stroke-width="1.71429"/>
<path d="M37.6428 23.3696L37.6552 23.356" stroke="#00A7A0" stroke-width="1.71429" stroke-linecap="round" stroke-linejoin="round"/>
</g>
<defs>
<clipPath id="clip0_321_517">
<rect width="25.7143" height="25.7143" fill="white" transform="translate(17.1428 17.1431)"/>
</clipPath>
</defs>
</svg>
