<svg width="60" height="60" viewBox="0 0 60 60" fill="none" xmlns="http://www.w3.org/2000/svg">
<rect width="60" height="60" rx="30" fill="#EFFEFC"/>
<g clip-path="url(#clip0_321_519)">
<g clip-path="url(#clip1_321_519)">
<path d="M24.7461 21.3276C24.7511 21.9627 24.5059 22.5743 24.0635 23.0301C23.6212 23.4858 23.0172 23.7492 22.3822 23.7631C21.7486 23.7401 21.148 23.4745 20.7046 23.0212C20.2613 22.5679 20.009 21.9616 20 21.3276C20.0274 20.7098 20.2888 20.1255 20.7312 19.6933C21.1736 19.2611 21.7639 19.0134 22.3822 19.0005C22.9988 19.0137 23.5869 19.262 24.0264 19.6946C24.4658 20.1272 24.7233 20.7114 24.7461 21.3276ZM20.2553 28.0905C20.2553 26.6909 21.1461 26.9095 22.3822 26.9095C23.6184 26.9095 24.4908 26.6909 24.4908 28.0905V41.7264C24.4908 43.1444 23.6 42.8542 22.3822 42.8542C21.1645 42.8542 20.2553 43.1444 20.2553 41.7264V28.0905ZM28.1643 28.0923C28.1643 27.3099 28.4545 27.0178 28.9082 26.9278C29.3618 26.8378 30.9286 26.9278 31.4722 26.9278C32.0178 26.9278 32.2363 27.8187 32.218 28.4909C32.6851 27.8655 33.3045 27.37 34.0173 27.0518C34.7301 26.7335 35.5125 26.6029 36.29 26.6725C37.0536 26.6259 37.8185 26.7404 38.535 27.0086C39.2515 27.2769 39.9035 27.6928 40.4488 28.2294C40.9941 28.766 41.4204 29.4113 41.7 30.1234C41.9797 30.8355 42.1064 31.5985 42.072 32.3627V41.6713C42.072 43.0893 41.1996 42.7991 39.9616 42.7991C38.7237 42.7991 37.8531 43.0893 37.8531 41.6713V34.3997C37.8851 34.0255 37.8362 33.6488 37.7097 33.2951C37.5833 32.9415 37.3822 32.6193 37.1201 32.3502C36.8581 32.0812 36.5412 31.8717 36.191 31.736C35.8408 31.6003 35.4655 31.5416 35.0906 31.5638C34.7172 31.5539 34.3459 31.6236 34.0014 31.7681C33.6569 31.9127 33.3471 32.1288 33.0925 32.4022C32.8378 32.6755 32.6443 32.9999 32.5245 33.3538C32.4048 33.7077 32.3616 34.083 32.398 34.4548V41.7264C32.398 43.1444 31.5071 42.8542 30.271 42.8542C29.0349 42.8542 28.1624 43.1444 28.1624 41.7264L28.1643 28.0923Z" stroke="#00A7A0" stroke-width="1.71429" stroke-linecap="round" stroke-linejoin="round"/>
</g>
</g>
<defs>
<clipPath id="clip0_321_519">
<rect width="25.7143" height="25.7143" fill="white" transform="translate(17.1428 17.1431)"/>
</clipPath>
<clipPath id="clip1_321_519">
<rect width="25.7143" height="25.7143" fill="white" transform="translate(17.7144 17.5718)"/>
</clipPath>
</defs>
</svg>
