<svg width="17" height="17" viewBox="0 0 17 17" fill="none" xmlns="http://www.w3.org/2000/svg">
<g clip-path="url(#clip0_694_464)">
<path d="M5.02102 2.83707C5.02434 3.26048 4.86087 3.66819 4.56597 3.97203C4.27106 4.27587 3.86842 4.45143 3.4451 4.46075C3.02266 4.4454 2.62227 4.26833 2.32669 3.96614C2.03111 3.66395 1.86294 3.25974 1.85693 2.83707C1.87519 2.42516 2.04947 2.03562 2.34442 1.7475C2.63936 1.45938 3.03287 1.29426 3.4451 1.28564C3.85611 1.29442 4.24822 1.45996 4.54119 1.74837C4.83415 2.03678 5.0058 2.42625 5.02102 2.83707ZM2.02714 7.34564C2.02714 6.41258 2.62102 6.5583 3.4451 6.5583C4.26918 6.5583 4.85081 6.41258 4.85081 7.34564V16.4363C4.85081 17.3816 4.25693 17.1881 3.4451 17.1881C2.63326 17.1881 2.02714 17.3816 2.02714 16.4363V7.34564ZM7.29979 7.34687C7.29979 6.82524 7.49326 6.63054 7.79571 6.57054C8.09816 6.51054 9.14265 6.57054 9.5051 6.57054C9.86877 6.57054 10.0145 7.16442 10.0022 7.61258C10.3137 7.19564 10.7266 6.86535 11.2018 6.65316C11.677 6.44096 12.1986 6.35393 12.7169 6.40034C13.226 6.36926 13.7359 6.4456 14.2136 6.62441C14.6912 6.80322 15.1259 7.08051 15.4895 7.43825C15.853 7.796 16.1372 8.2262 16.3236 8.70093C16.5101 9.17566 16.5946 9.6843 16.5716 10.1938V16.3995C16.5716 17.3448 15.99 17.1514 15.1647 17.1514C14.3394 17.1514 13.759 17.3448 13.759 16.3995V11.5518C13.7803 11.3023 13.7477 11.0512 13.6634 10.8154C13.5791 10.5797 13.445 10.3648 13.2703 10.1855C13.0956 10.0061 12.8844 9.86647 12.6509 9.776C12.4175 9.68553 12.1673 9.64636 11.9173 9.66116C11.6684 9.6546 11.4209 9.70104 11.1912 9.7974C10.9615 9.89376 10.755 10.0378 10.5852 10.2201C10.4155 10.4023 10.2864 10.6186 10.2066 10.8545C10.1268 11.0904 10.098 11.3406 10.1222 11.5885V16.4363C10.1222 17.3816 9.52836 17.1881 8.70428 17.1881C7.8802 17.1881 7.29857 17.3816 7.29857 16.4363L7.29979 7.34687Z" stroke="#00A7A0" stroke-width="1.14286" stroke-linecap="round" stroke-linejoin="round"/>
</g>
<defs>
<clipPath id="clip0_694_464">
<rect width="17.1429" height="17.1429" fill="white"/>
</clipPath>
</defs>
</svg>
