<svg width="60" height="60" viewBox="0 0 60 60" fill="none" xmlns="http://www.w3.org/2000/svg">
<rect width="60" height="60" rx="30" fill="#00A7A0"/>
<g clip-path="url(#clip0_321_658)">
<path fill-rule="evenodd" clip-rule="evenodd" d="M29.3373 41.2034C29.3373 41.2034 21.4084 34.5259 21.4084 27.9553C21.4084 25.6387 22.3287 23.417 23.9667 21.779C25.6048 20.141 27.8265 19.2207 30.143 19.2207C32.4596 19.2207 34.6812 20.141 36.3193 21.779C37.9573 23.417 38.8776 25.6387 38.8776 27.9553C38.8776 34.5259 30.9488 41.2034 30.9488 41.2034C30.5077 41.6096 29.7816 41.6052 29.3373 41.2034ZM30.143 31.7766C30.6448 31.7766 31.1418 31.6778 31.6054 31.4858C32.069 31.2937 32.4903 31.0122 32.8451 30.6574C33.2 30.3025 33.4815 29.8813 33.6735 29.4177C33.8656 28.954 33.9644 28.4571 33.9644 27.9553C33.9644 27.4534 33.8656 26.9565 33.6735 26.4929C33.4815 26.0293 33.2 25.608 32.8451 25.2532C32.4903 24.8983 32.069 24.6168 31.6054 24.4248C31.1418 24.2327 30.6448 24.1339 30.143 24.1339C29.1295 24.1339 28.1575 24.5365 27.4409 25.2532C26.7243 25.9698 26.3216 26.9418 26.3216 27.9553C26.3216 28.9688 26.7243 29.9407 27.4409 30.6574C28.1575 31.374 29.1295 31.7766 30.143 31.7766Z" fill="white"/>
</g>
<defs>
<clipPath id="clip0_321_658">
<rect width="25.7143" height="25.7143" fill="white" transform="translate(17.1431 17.1431)"/>
</clipPath>
</defs>
</svg>
