<svg width="70" height="70" viewBox="0 0 70 70" fill="none" xmlns="http://www.w3.org/2000/svg">
<rect width="70" height="70" rx="35" fill="#EFFEFC"/>
<g clip-path="url(#clip0_362_119)">
<g clip-path="url(#clip1_362_119)">
<path d="M19.9995 32.4124H49.9995V42.4124C49.9995 45.8636 47.2008 48.6624 43.7495 48.6624H40.1895C41.982 47.1724 43.1245 44.9261 43.1245 42.4124C43.1245 40.0911 42.1508 37.9974 40.5883 36.5174C39.4658 35.4536 37.9433 34.9124 36.397 34.9124H33.602C32.0558 34.9124 30.5333 35.4536 29.4108 36.5174C27.8495 37.9974 26.8745 40.0911 26.8745 42.4124C26.8745 44.9261 28.017 47.1724 29.8095 48.6624H26.2495C22.7983 48.6624 19.9995 45.8636 19.9995 42.4124V32.4124ZM37.4995 38.7174V40.4036C37.4995 41.6486 36.6483 42.8036 35.4195 43.0036C33.8533 43.2586 32.4995 42.0561 32.4995 40.5374V38.7174C32.4995 38.1061 31.7795 37.7874 31.317 38.1874C30.1308 39.2136 29.3745 40.7199 29.3745 42.4124C29.3745 44.8574 30.9445 46.9186 33.1245 47.6924V49.9124C33.1245 50.6024 33.6845 51.1624 34.3745 51.1624H35.6245C36.3145 51.1624 36.8745 50.6024 36.8745 49.9124V47.6924C39.0545 46.9174 40.6245 44.8574 40.6245 42.4124C40.6245 40.7199 39.8695 39.2124 38.682 38.1874C38.2195 37.7874 37.4995 38.1061 37.4995 38.7174ZM49.9995 27.4124V29.9124H19.9995V27.4124C19.9995 23.9611 22.7983 21.1624 26.2495 21.1624H43.7495C47.2008 21.1624 49.9995 23.9611 49.9995 27.4124ZM26.2495 25.5374C26.2495 24.5024 25.4095 23.6624 24.3745 23.6624C23.3395 23.6624 22.4995 24.5024 22.4995 25.5374C22.4995 26.5724 23.3395 27.4124 24.3745 27.4124C25.4095 27.4124 26.2495 26.5724 26.2495 25.5374ZM31.2495 25.5374C31.2495 24.5024 30.4095 23.6624 29.3745 23.6624C28.3395 23.6624 27.4995 24.5024 27.4995 25.5374C27.4995 26.5724 28.3395 27.4124 29.3745 27.4124C30.4095 27.4124 31.2495 26.5724 31.2495 25.5374Z" fill="#00A7A0"/>
</g>
</g>
<defs>
<clipPath id="clip0_362_119">
<rect width="30" height="30" fill="white" transform="translate(20 20)"/>
</clipPath>
<clipPath id="clip1_362_119">
<rect width="30" height="30" fill="white" transform="translate(19.9995 19.9124)"/>
</clipPath>
</defs>
</svg>
