<svg width="70" height="70" viewBox="0 0 70 70" fill="none" xmlns="http://www.w3.org/2000/svg">
<rect width="70" height="70" rx="35" fill="#EFFEFC"/>
<g clip-path="url(#clip0_362_233)">
<g clip-path="url(#clip1_362_233)">
<path d="M48.9837 43.0727L48.0665 42.5368C48.0911 42.2804 48.1062 42.0132 48.1062 41.7296C48.1062 41.4459 48.0911 41.18 48.0665 40.9223L48.9837 40.3864C49.9626 39.8151 50.2917 38.5606 49.7159 37.587C49.1414 36.6134 47.88 36.2862 46.9011 36.8589L46.258 37.2339C45.8152 36.9161 45.2846 36.683 44.6772 36.5248V35.5921C44.6772 34.4631 43.7559 33.5468 42.6206 33.5468C41.4854 33.5468 40.564 34.4631 40.564 35.5921V36.5248C39.9567 36.683 39.4261 36.9148 38.9832 37.2339L38.3402 36.8589C37.3612 36.2875 36.0999 36.6134 35.5254 37.587C34.9509 38.5606 35.2786 39.8151 36.2575 40.3864L37.1748 40.9223C37.1501 41.1787 37.135 41.4459 37.135 41.7296C37.135 42.0132 37.1501 42.2791 37.1748 42.5368L36.2575 43.0727C35.2786 43.644 34.9495 44.8985 35.5254 45.8721C36.0999 46.8457 37.3612 47.1729 38.3402 46.6002L38.9832 46.2253C39.4261 46.543 39.9567 46.7761 40.564 46.9343V47.867C40.564 48.996 41.4854 49.9124 42.6206 49.9124C43.7559 49.9124 44.6772 48.996 44.6772 47.867V46.9343C45.2846 46.7761 45.8152 46.5443 46.258 46.2253L46.9011 46.6002C47.88 47.1716 49.1414 46.8457 49.7159 45.8721C50.2903 44.8985 49.9626 43.644 48.9837 43.0727ZM42.622 43.7763C40.9877 43.7763 40.5654 43.3563 40.5654 41.7309C40.5654 40.1055 40.9877 39.6856 42.622 39.6856C44.2563 39.6856 44.6786 40.1055 44.6786 41.7309C44.6786 43.3563 44.2563 43.7763 42.622 43.7763ZM33.1631 36.2084C32.1005 38.0097 32.3637 40.2255 33.6566 41.7309C33.2919 42.155 33.0191 42.6391 32.8244 43.1518C30.968 43.0359 25.8841 42.32 26.013 42.245C25.4892 42.1318 25.0807 41.7255 24.9669 41.2032C24.949 41.1269 24.6268 39.6446 24.3828 37.6307C22.0109 37.797 19.9981 35.8948 19.9995 33.5495C19.9995 31.2041 22.0122 29.3279 24.3828 29.4669C24.6268 27.4529 24.949 25.9721 24.9669 25.8944C25.0807 25.3735 25.4892 24.9672 26.013 24.8526C26.0911 24.8362 27.5815 24.5144 29.6065 24.2717C29.442 21.9277 31.3478 19.9028 33.7101 19.9124C36.0724 19.9028 37.9796 21.9277 37.8137 24.2717C39.8401 24.5144 41.3291 24.8362 41.4072 24.8526C41.8871 24.9576 42.2737 25.308 42.4218 25.7744C42.4547 25.8794 43.1786 28.2193 43.2856 30.8728C43.0676 30.8428 42.8468 30.821 42.622 30.821C40.5668 30.821 38.8104 32.1123 38.1277 33.9217C36.2164 33.5958 34.2051 34.4453 33.1631 36.2084Z" fill="#00A7A0"/>
</g>
</g>
<defs>
<clipPath id="clip0_362_233">
<rect width="30" height="30" fill="white" transform="translate(20 20)"/>
</clipPath>
<clipPath id="clip1_362_233">
<rect width="30" height="30" fill="white" transform="translate(19.9995 19.9124)"/>
</clipPath>
</defs>
</svg>
