<svg width="70" height="70" viewBox="0 0 70 70" fill="none" xmlns="http://www.w3.org/2000/svg">
<rect width="70" height="70" rx="35" fill="#EFFEFC"/>
<g clip-path="url(#clip0_362_182)">
<g clip-path="url(#clip1_362_182)">
<path d="M46.2496 46.7872V49.9122H23.7496V46.7872C23.7496 43.7935 26.1058 41.3622 29.0583 41.1947L32.4996 46.7872L34.9996 43.0372L37.4996 46.7872L40.9408 41.1947C43.8933 41.3622 46.2496 43.7947 46.2496 46.7872ZM28.5896 24.946C30.5008 23.1547 33.0033 22.2697 35.6271 22.4322C40.5321 22.7497 44.3758 27.0185 44.3758 32.1497C44.3758 34.3622 42.5771 36.161 40.3646 36.161H37.3571C37.0521 35.1247 36.1046 34.3622 34.9696 34.3622C33.5883 34.3622 32.4696 35.481 32.4696 36.8622C32.4696 38.2435 33.5883 39.3622 34.9696 39.3622C35.6421 39.3622 36.2508 39.0935 36.6996 38.661H40.3646C43.9546 38.661 46.8758 35.7397 46.8758 32.1497C46.8746 25.7047 42.0046 20.3397 35.7871 19.9385C32.4571 19.7222 29.2983 20.8535 26.8796 23.1235C24.6458 25.2172 23.3033 28.1185 23.1421 31.1635H25.6458C25.7996 28.7847 26.8308 26.5947 28.5896 24.946ZM38.8858 33.676C38.9146 33.6697 38.9521 33.6622 38.9521 33.6622H40.5846C41.2108 33.6622 41.7583 33.2022 41.8308 32.5797C41.9158 31.846 41.8846 31.0772 41.7171 30.291C41.1621 27.6922 39.0533 25.596 36.4508 25.061C32.0296 24.1522 28.1271 27.5235 28.1271 31.7872C28.1271 33.6235 28.8508 35.2935 30.0271 36.5272C30.1658 33.8897 32.3283 31.7872 35.0008 31.7872C36.5796 31.7872 37.9696 32.5335 38.8858 33.676Z" fill="#00A7A0"/>
</g>
</g>
<defs>
<clipPath id="clip0_362_182">
<rect width="30" height="30" fill="white" transform="translate(20 20)"/>
</clipPath>
<clipPath id="clip1_362_182">
<rect width="30" height="30" fill="white" transform="translate(19.9995 19.9124)"/>
</clipPath>
</defs>
</svg>
