<svg width="1920" height="1077" viewBox="0 0 1920 1077" fill="none" xmlns="http://www.w3.org/2000/svg">
<path opacity="0.03" fill-rule="evenodd" clip-rule="evenodd" d="M1887.18 1000.21C1883.86 1000.21 1881.18 1002.89 1881.18 1006.21V1076.11C1881.18 1076.6 1880.78 1077 1880.28 1077C1879.79 1077 1879.39 1076.6 1879.39 1076.11V1006.21C1879.39 1002.89 1876.7 1000.21 1873.39 1000.21H1814.82C1811.51 1000.21 1808.82 1002.89 1808.82 1006.21V1074.21C1808.82 1074.7 1808.42 1075.1 1807.93 1075.1C1807.43 1075.1 1807.03 1074.7 1807.03 1074.21V1006.21C1807.03 1002.89 1804.35 1000.21 1801.03 1000.21H1742.47C1739.16 1000.21 1736.47 1002.89 1736.47 1006.21V1074.21C1736.47 1074.7 1736.07 1075.1 1735.58 1075.1C1735.08 1075.1 1734.68 1074.7 1734.68 1074.21V1006.21C1734.68 1002.89 1732 1000.21 1728.68 1000.21H1670.12C1666.8 1000.21 1664.12 1002.89 1664.12 1006.21V1074.21C1664.12 1074.7 1663.72 1075.1 1663.22 1075.1C1662.73 1075.1 1662.33 1074.7 1662.33 1074.21V1006.21C1662.33 1002.89 1659.64 1000.21 1656.33 1000.21H1597.76C1594.45 1000.21 1591.76 1002.89 1591.76 1006.21V1074.21C1591.76 1074.7 1591.36 1075.1 1590.87 1075.1C1590.38 1075.1 1589.98 1074.7 1589.98 1074.21V1006.21C1589.98 1002.89 1587.29 1000.21 1583.98 1000.21H1525.41C1522.1 1000.21 1519.41 1002.89 1519.41 1006.21V1074.21C1519.41 1074.7 1519.01 1075.1 1518.52 1075.1C1518.02 1075.1 1517.62 1074.7 1517.62 1074.21V1006.21C1517.62 1002.89 1514.94 1000.21 1511.62 1000.21H1453.06C1449.74 1000.21 1447.06 1002.89 1447.06 1006.21V1074.21C1447.06 1074.7 1446.66 1075.1 1446.16 1075.1C1445.67 1075.1 1445.27 1074.7 1445.27 1074.21V1006.21C1445.27 1002.89 1442.58 1000.21 1439.27 1000.21L1380.7 1000.21C1377.39 1000.21 1374.7 1002.89 1374.7 1006.21V1074.21C1374.7 1074.7 1374.3 1075.1 1373.81 1075.1C1373.32 1075.1 1372.92 1074.7 1372.92 1074.21V1006.21C1372.92 1002.89 1370.23 1000.21 1366.92 1000.21H1308.35C1305.04 1000.21 1302.35 1002.89 1302.35 1006.21V1074.21C1302.35 1074.7 1301.95 1075.1 1301.46 1075.1C1300.96 1075.1 1300.56 1074.7 1300.56 1074.21V1006.21C1300.56 1002.89 1297.88 1000.21 1294.56 1000.21H1236C1232.68 1000.21 1230 1002.89 1230 1006.21V1074.21C1230 1074.7 1229.6 1075.1 1229.1 1075.1C1228.61 1075.1 1228.21 1074.7 1228.21 1074.21V1006.21C1228.21 1002.89 1225.52 1000.21 1222.21 1000.21H1163.65C1160.33 1000.21 1157.65 1002.89 1157.65 1006.21V1074.21C1157.65 1074.7 1157.25 1075.1 1156.75 1075.1C1156.26 1075.1 1155.86 1074.7 1155.86 1074.21V1006.21C1155.86 1002.89 1153.17 1000.21 1149.86 1000.21H1091.29C1087.98 1000.21 1085.29 1002.89 1085.29 1006.21V1074.21C1085.29 1074.7 1084.89 1075.1 1084.4 1075.1C1083.9 1075.1 1083.5 1074.7 1083.5 1074.21V1006.21C1083.5 1002.89 1080.82 1000.21 1077.5 1000.21H1018.94C1015.63 1000.21 1012.94 1002.89 1012.94 1006.21V1074.21C1012.94 1074.7 1012.54 1075.1 1012.05 1075.1C1011.55 1075.1 1011.15 1074.7 1011.15 1074.21V1006.21C1011.15 1002.89 1008.47 1000.21 1005.15 1000.21H946.586C943.272 1000.21 940.586 1002.89 940.586 1006.21V1074.21C940.586 1074.7 940.185 1075.1 939.692 1075.1C939.198 1075.1 938.798 1074.7 938.798 1074.21V1006.21C938.798 1002.89 936.112 1000.21 932.798 1000.21H874.233C870.92 1000.21 868.233 1002.89 868.233 1006.21V1074.21C868.233 1074.7 867.833 1075.1 867.34 1075.1C866.846 1075.1 866.446 1074.7 866.446 1074.21V1006.21C866.446 1002.89 863.759 1000.21 860.446 1000.21H801.879C798.566 1000.21 795.879 1002.89 795.879 1006.21V1074.21C795.879 1074.7 795.479 1075.1 794.986 1075.1C794.492 1075.1 794.092 1074.7 794.092 1074.21V1006.21C794.092 1002.89 791.405 1000.21 788.092 1000.21H729.527C726.214 1000.21 723.527 1002.89 723.527 1006.21V1074.21C723.527 1074.7 723.127 1075.1 722.633 1075.1C722.14 1075.1 721.74 1074.7 721.74 1074.21V1006.21C721.74 1002.89 719.053 1000.21 715.74 1000.21H657.173C653.86 1000.21 651.173 1002.89 651.173 1006.21V1074.21C651.173 1074.7 650.773 1075.1 650.279 1075.1C649.786 1075.1 649.386 1074.7 649.386 1074.21V1006.21C649.386 1002.89 646.699 1000.21 643.386 1000.21L584.823 1000.21C581.509 1000.21 578.823 1002.89 578.823 1006.21V1074.21C578.823 1074.7 578.423 1075.1 577.929 1075.1C577.435 1075.1 577.035 1074.7 577.035 1074.21V1006.21C577.035 1002.89 574.349 1000.21 571.035 1000.21H512.469C509.155 1000.21 506.469 1002.89 506.469 1006.21V1074.21C506.469 1074.7 506.069 1075.1 505.575 1075.1C505.082 1075.1 504.681 1074.7 504.681 1074.21V1006.21C504.681 1002.89 501.995 1000.21 498.681 1000.21H440.117C436.803 1000.21 434.117 1002.89 434.117 1006.21V1074.21C434.117 1074.7 433.717 1075.1 433.223 1075.1C432.729 1075.1 432.329 1074.7 432.329 1074.21V1006.21C432.329 1002.89 429.643 1000.21 426.329 1000.21H367.764C364.451 1000.21 361.764 1002.89 361.764 1006.21V1074.21C361.764 1074.7 361.364 1075.1 360.871 1075.1C360.377 1075.1 359.977 1074.7 359.977 1074.21V1006.21C359.977 1002.89 357.291 1000.21 353.977 1000.21H295.411C292.097 1000.21 289.411 1002.89 289.411 1006.21V1074.21C289.411 1074.7 289.01 1075.1 288.517 1075.1C288.023 1075.1 287.623 1074.7 287.623 1074.21V1006.21C287.623 1002.89 284.937 1000.21 281.623 1000.21H223.058C219.745 1000.21 217.058 1002.89 217.058 1006.21V1074.21C217.058 1074.7 216.658 1075.1 216.165 1075.1C215.671 1075.1 215.271 1074.7 215.271 1074.21V1006.21C215.271 1002.89 212.584 1000.21 209.271 1000.21H150.704C147.391 1000.21 144.704 1002.89 144.704 1006.21V1074.21C144.704 1074.7 144.304 1075.1 143.811 1075.1C143.317 1075.1 142.917 1074.7 142.917 1074.21V1006.21C142.917 1002.89 140.23 1000.21 136.917 1000.21H78.3469C75.0332 1000.21 72.3469 1002.89 72.3469 1006.21V1074.21C72.3469 1074.7 71.9467 1075.1 71.453 1075.1C70.9594 1075.1 70.5592 1074.7 70.5592 1074.21V1006.21C70.5592 1002.89 67.8729 1000.21 64.5592 1000.21H0.948769C0.42481 1000.21 5.3525e-05 999.781 5.3525e-05 999.257C5.3525e-05 998.733 0.424806 998.308 0.948765 998.308H64.5611C67.8748 998.308 70.561 995.622 70.561 992.308V929.414C70.561 926.1 67.8748 923.414 64.561 923.414H0.94876C0.424801 923.414 5.3525e-05 922.989 5.3525e-05 922.465C5.3525e-05 921.941 0.424806 921.516 0.948765 921.516H64.5611C67.8748 921.516 70.561 918.83 70.561 915.516V852.621C70.561 849.308 67.8748 846.621 64.561 846.621H0.948769C0.424806 846.621 5.3525e-05 846.197 5.3525e-05 845.673C5.3525e-05 845.149 0.424809 844.724 0.948772 844.724H64.5611C67.8748 844.724 70.561 842.038 70.561 838.724V775.827C70.561 772.514 67.8748 769.827 64.561 769.827H0.948769C0.424806 769.827 5.3525e-05 769.403 5.3525e-05 768.879C5.3525e-05 768.355 0.424809 767.93 0.948772 767.93H64.5611C67.8748 767.93 70.561 765.244 70.561 761.93V699.035C70.561 695.721 67.8748 693.035 64.561 693.035H0.948752C0.424797 693.035 5.3525e-05 692.61 5.3525e-05 692.086C5.3525e-05 691.562 0.424803 691.138 0.948757 691.138H64.5611C67.8748 691.138 70.561 688.451 70.561 685.138V622.241C70.561 618.927 67.8748 616.241 64.561 616.241H0.948752C0.424797 616.241 5.3525e-05 615.816 5.3525e-05 615.292C5.3525e-05 614.768 0.424803 614.344 0.948757 614.344H64.5611C67.8748 614.344 70.561 611.657 70.561 608.344V545.449C70.561 542.135 67.8748 539.449 64.561 539.449H0.948752C0.424797 539.449 5.3525e-05 539.024 5.3525e-05 538.5C5.3525e-05 537.976 0.424803 537.551 0.948757 537.551H64.5611C67.8748 537.551 70.561 534.865 70.561 531.551V468.655C70.561 465.341 67.8748 462.655 64.561 462.655H0.948752C0.424797 462.655 5.3525e-05 462.23 5.3525e-05 461.706C5.3525e-05 461.182 0.424803 460.757 0.948757 460.757H64.5611C67.8748 460.757 70.561 458.071 70.561 454.757V391.862C70.561 388.549 67.8748 385.862 64.561 385.862H0.948722C0.424785 385.862 5.3525e-05 385.438 5.3525e-05 384.914C5.3525e-05 384.39 0.424789 383.965 0.948727 383.965H64.5611C67.8748 383.965 70.561 381.279 70.561 377.965V315.068C70.561 311.755 67.8748 309.068 64.561 309.068H0.948752C0.424797 309.068 5.3525e-05 308.644 5.3525e-05 308.12C5.3525e-05 307.596 0.424803 307.171 0.948757 307.171H64.5611C67.8748 307.171 70.561 304.485 70.561 301.171V238.276C70.561 234.962 67.8748 232.276 64.561 232.276H0.94879C0.424818 232.276 5.3525e-05 231.851 5.3525e-05 231.327C5.3525e-05 230.803 0.424816 230.379 0.948788 230.379H64.5611C67.8748 230.379 70.561 227.692 70.561 224.379V161.484C70.561 158.17 67.8748 155.484 64.561 155.484H0.94879C0.424818 155.484 5.3525e-05 155.059 5.3525e-05 154.535C5.3525e-05 154.011 0.424816 153.586 0.948788 153.586H64.5611C67.8748 153.586 70.561 150.9 70.561 147.586V84.6897C70.561 81.376 67.8748 78.6897 64.561 78.6897H0.948752C0.424797 78.6897 5.3525e-05 78.2649 5.3525e-05 77.741C5.3525e-05 77.217 0.424803 76.7923 0.948757 76.7923H64.5611C67.8748 76.7923 70.561 74.106 70.561 70.7923V0.893853C70.561 0.400194 70.9612 -1.26869e-06 71.4549 -1.26869e-06C71.9486 -1.26869e-06 72.3487 0.400188 72.3487 0.893847V70.7923C72.3487 74.106 75.035 76.7923 78.3487 76.7923H136.919C140.232 76.7923 142.919 74.106 142.919 70.7923V0.893853C142.919 0.400194 143.319 -1.26869e-06 143.812 -1.26869e-06C144.306 -1.26869e-06 144.706 0.400188 144.706 0.893847V70.7923C144.706 74.106 147.393 76.7923 150.706 76.7923H209.273C212.586 76.7923 215.273 74.106 215.273 70.7923V0.893921C215.273 0.400223 215.673 -1.26869e-06 216.166 -1.26869e-06C216.66 -1.26869e-06 217.06 0.400221 217.06 0.893919V70.7923C217.06 74.106 219.747 76.7923 223.06 76.7923H281.625C284.938 76.7923 287.625 74.106 287.625 70.7923V0.893921C287.625 0.400223 288.025 -1.26869e-06 288.519 -1.26869e-06C289.012 -1.26869e-06 289.413 0.400221 289.413 0.893919V70.7923C289.413 74.106 292.099 76.7923 295.413 76.7923H353.979C357.292 76.7923 359.979 74.106 359.979 70.7923V0.893853C359.979 0.400194 360.379 -1.26869e-06 360.872 -1.26869e-06C361.366 -1.26869e-06 361.766 0.400188 361.766 0.893847V70.7923C361.766 74.106 364.453 76.7923 367.766 76.7923H426.331C429.645 76.7923 432.331 74.106 432.331 70.7923V0.893853C432.331 0.400194 432.731 -1.26869e-06 433.225 -1.26869e-06C433.718 -1.26869e-06 434.119 0.400188 434.119 0.893847V70.7923C434.119 74.106 436.805 76.7923 440.119 76.7923H498.683C501.997 76.7923 504.683 74.106 504.683 70.7923V0.893853C504.683 0.400194 505.083 -1.26869e-06 505.577 -1.26869e-06C506.071 -1.26869e-06 506.471 0.400188 506.471 0.893847V70.7923C506.471 74.106 509.157 76.7923 512.471 76.7923L571.037 76.7923C574.351 76.7923 577.037 74.106 577.037 70.7923V0.893853C577.037 0.400194 577.437 -1.26869e-06 577.931 -1.26869e-06C578.425 -1.26869e-06 578.825 0.400188 578.825 0.893847V70.7923C578.825 74.106 581.511 76.7923 584.825 76.7923H643.387C646.701 76.7923 649.387 74.106 649.387 70.7923V0.893853C649.387 0.400194 649.788 -1.26869e-06 650.281 -1.26869e-06C650.775 -1.26869e-06 651.175 0.400188 651.175 0.893847V70.7923C651.175 74.106 653.861 76.7923 657.175 76.7923H715.741C719.055 76.7923 721.741 74.106 721.741 70.7923V0.893921C721.741 0.400223 722.141 -1.26869e-06 722.635 -1.26869e-06C723.129 -1.26869e-06 723.529 0.400221 723.529 0.893919V70.7923C723.529 74.106 726.215 76.7923 729.529 76.7923H788.093C791.407 76.7923 794.093 74.106 794.093 70.7923V0.893853C794.093 0.400194 794.494 -1.26869e-06 794.987 -1.26869e-06C795.481 -1.26869e-06 795.881 0.400188 795.881 0.893847V70.7923C795.881 74.106 798.567 76.7923 801.881 76.7923H860.447C863.761 76.7923 866.447 74.106 866.447 70.7923V0.893853C866.447 0.400194 866.848 -1.26869e-06 867.341 -1.26869e-06C867.835 -1.26869e-06 868.235 0.400188 868.235 0.893847V70.7923C868.235 74.106 870.921 76.7923 874.235 76.7923H932.8C936.113 76.7923 938.8 74.106 938.8 70.7923V0.893853C938.8 0.400194 939.2 -1.26869e-06 939.693 -1.26869e-06C940.187 -1.26869e-06 940.587 0.400188 940.587 0.893847V70.7923C940.587 74.106 943.274 76.7923 946.587 76.7923H1005.15C1008.47 76.7923 1011.15 74.106 1011.15 70.7923V0.893853C1011.15 0.400194 1011.55 -1.26869e-06 1012.05 -1.26869e-06C1012.54 -1.26869e-06 1012.94 0.400188 1012.94 0.893847V70.7923C1012.94 74.106 1015.63 76.7923 1018.94 76.7923H1077.51C1080.82 76.7923 1083.51 74.106 1083.51 70.7923V0.893853C1083.51 0.400194 1083.91 -1.26869e-06 1084.4 -1.26869e-06C1084.89 -1.26869e-06 1085.29 0.400188 1085.29 0.893847V70.7923C1085.29 74.106 1087.98 76.7923 1091.29 76.7923H1149.86C1153.17 76.7923 1155.86 74.106 1155.86 70.7923V0.893853C1155.86 0.400194 1156.26 -1.26869e-06 1156.75 -1.26869e-06C1157.25 -1.26869e-06 1157.65 0.400188 1157.65 0.893847V70.7923C1157.65 74.106 1160.33 76.7923 1163.65 76.7923H1222.21C1225.53 76.7923 1228.21 74.106 1228.21 70.7923V0.893853C1228.21 0.400194 1228.61 -1.26869e-06 1229.11 -1.26869e-06C1229.6 -1.26869e-06 1230 0.400188 1230 0.893847V70.7923C1230 74.106 1232.69 76.7923 1236 76.7923H1294.57C1297.88 76.7923 1300.57 74.106 1300.57 70.7923V0.893853C1300.57 0.400194 1300.97 -1.26869e-06 1301.46 -1.26869e-06C1301.95 -1.26869e-06 1302.35 0.400188 1302.35 0.893847V70.7923C1302.35 74.106 1305.04 76.7923 1308.35 76.7923H1366.92C1370.23 76.7923 1372.92 74.106 1372.92 70.7923V0.893866C1372.92 0.400197 1373.32 -1.26869e-06 1373.81 -1.26869e-06C1374.31 -1.26869e-06 1374.71 0.400197 1374.71 0.893866V70.7923C1374.71 74.106 1377.39 76.7923 1380.71 76.7923H1439.27C1442.59 76.7923 1445.27 74.106 1445.27 70.7923V0.893853C1445.27 0.400194 1445.67 -1.26869e-06 1446.17 -1.26869e-06C1446.66 -1.26869e-06 1447.06 0.400188 1447.06 0.893847V70.7923C1447.06 74.106 1449.75 76.7923 1453.06 76.7923L1511.62 76.7923C1514.94 76.7923 1517.62 74.106 1517.62 70.7923V0.893853C1517.62 0.400194 1518.02 -1.26869e-06 1518.52 -1.26869e-06C1519.01 -1.26869e-06 1519.41 0.400188 1519.41 0.893847V70.7923C1519.41 74.106 1522.1 76.7923 1525.41 76.7923H1583.98C1587.29 76.7923 1589.98 74.106 1589.98 70.7923V0.893853C1589.98 0.400194 1590.38 -1.26869e-06 1590.87 -1.26869e-06C1591.37 -1.26869e-06 1591.77 0.400188 1591.77 0.893847V70.7923C1591.77 74.106 1594.45 76.7923 1597.77 76.7923H1656.33C1659.64 76.7923 1662.33 74.106 1662.33 70.7923V0.893866C1662.33 0.400197 1662.73 -1.26869e-06 1663.22 -1.26869e-06C1663.72 -1.26869e-06 1664.12 0.400197 1664.12 0.893866L1664.12 70.7923C1664.12 74.106 1666.8 76.7923 1670.12 76.7923H1728.68C1732 76.7923 1734.68 74.106 1734.68 70.7923L1734.68 0.893857C1734.68 0.400193 1735.08 -1.26869e-06 1735.58 -1.26869e-06C1736.07 -1.26869e-06 1736.47 0.400193 1736.47 0.893857L1736.47 70.7923C1736.47 74.106 1739.16 76.7923 1742.47 76.7923H1801.04C1804.35 76.7923 1807.04 74.106 1807.04 70.7923V0.893857C1807.04 0.400193 1807.44 -1.26869e-06 1807.93 -1.26869e-06C1808.42 -1.26869e-06 1808.82 0.400193 1808.82 0.893857V70.7923C1808.82 74.106 1811.51 76.7923 1814.82 76.7923H1873.39C1876.7 76.7923 1879.39 74.106 1879.39 70.7923V2.79138C1879.39 2.29772 1879.79 1.89753 1880.28 1.89753C1880.78 1.89753 1881.18 2.29772 1881.18 2.79138V70.7923C1881.18 74.106 1883.86 76.7923 1887.18 76.7923H1919.05C1919.58 76.7923 1920 77.217 1920 77.741C1920 78.2649 1919.58 78.6897 1919.05 78.6897H1887.18C1883.86 78.6897 1881.18 81.376 1881.18 84.6897L1881.18 147.586C1881.18 150.9 1883.86 153.586 1887.18 153.586H1919.05C1919.58 153.586 1920 154.011 1920 154.535C1920 155.059 1919.58 155.484 1919.05 155.484H1887.18C1883.86 155.484 1881.18 158.17 1881.18 161.484V224.379C1881.18 227.692 1883.86 230.379 1887.18 230.379H1919.05C1919.58 230.379 1920 230.803 1920 231.327C1920 231.851 1919.58 232.276 1919.05 232.276H1887.18C1883.86 232.276 1881.18 234.962 1881.18 238.276V301.171C1881.18 304.485 1883.86 307.171 1887.18 307.171H1919.05C1919.58 307.171 1920 307.596 1920 308.12C1920 308.644 1919.58 309.068 1919.05 309.068H1887.18C1883.86 309.068 1881.18 311.755 1881.18 315.068V377.965C1881.18 381.279 1883.86 383.965 1887.18 383.965H1919.05C1919.58 383.965 1920 384.39 1920 384.914C1920 385.438 1919.58 385.862 1919.05 385.862H1887.18C1883.86 385.862 1881.18 388.549 1881.18 391.862V454.757C1881.18 458.071 1883.86 460.757 1887.18 460.757H1919.05C1919.58 460.757 1920 461.182 1920 461.706C1920 462.23 1919.58 462.655 1919.05 462.655H1887.18C1883.86 462.655 1881.18 465.341 1881.18 468.655V531.551C1881.18 534.865 1883.86 537.551 1887.18 537.551H1919.05C1919.58 537.551 1920 537.976 1920 538.5C1920 539.024 1919.58 539.449 1919.05 539.449H1887.18C1883.86 539.449 1881.18 542.135 1881.18 545.449V608.344C1881.18 611.657 1883.86 614.344 1887.18 614.344H1919.05C1919.58 614.344 1920 614.768 1920 615.292C1920 615.816 1919.58 616.241 1919.05 616.241H1887.18C1883.86 616.241 1881.18 618.927 1881.18 622.241V685.138C1881.18 688.451 1883.86 691.138 1887.18 691.138H1919.05C1919.58 691.138 1920 691.562 1920 692.086C1920 692.61 1919.58 693.035 1919.05 693.035H1887.18C1883.86 693.035 1881.18 695.721 1881.18 699.035V761.93C1881.18 765.244 1883.86 767.93 1887.18 767.93H1919.05C1919.58 767.93 1920 768.355 1920 768.879C1920 769.403 1919.58 769.827 1919.05 769.827H1887.18C1883.86 769.827 1881.18 772.514 1881.18 775.827V838.724C1881.18 842.038 1883.86 844.724 1887.18 844.724H1919.05C1919.58 844.724 1920 845.149 1920 845.673C1920 846.197 1919.58 846.621 1919.05 846.621H1887.18C1883.86 846.621 1881.18 849.308 1881.18 852.621V915.516C1881.18 918.83 1883.86 921.516 1887.18 921.516H1919.05C1919.58 921.516 1920 921.941 1920 922.465C1920 922.989 1919.58 923.414 1919.05 923.414H1887.18C1883.86 923.414 1881.18 926.1 1881.18 929.414V992.308C1881.18 995.622 1883.86 998.308 1887.18 998.308H1919.05C1919.58 998.308 1920 998.733 1920 999.257C1920 999.781 1919.58 1000.21 1919.05 1000.21H1887.18ZM1879.39 992.308C1879.39 995.622 1876.7 998.308 1873.39 998.308H1814.82C1811.51 998.308 1808.82 995.622 1808.82 992.308V929.414C1808.82 926.1 1811.51 923.414 1814.82 923.414H1873.39C1876.7 923.414 1879.39 926.1 1879.39 929.414V992.308ZM1879.39 915.516C1879.39 918.83 1876.7 921.516 1873.39 921.516H1814.82C1811.51 921.516 1808.82 918.83 1808.82 915.516V852.621C1808.82 849.308 1811.51 846.621 1814.82 846.621H1873.39C1876.7 846.621 1879.39 849.308 1879.39 852.621V915.516ZM1879.39 838.724C1879.39 842.038 1876.7 844.724 1873.39 844.724H1814.82C1811.51 844.724 1808.82 842.038 1808.82 838.724V775.827C1808.82 772.514 1811.51 769.827 1814.82 769.827H1873.39C1876.7 769.827 1879.39 772.514 1879.39 775.827V838.724ZM1879.39 761.93C1879.39 765.244 1876.7 767.93 1873.39 767.93H1814.82C1811.51 767.93 1808.82 765.244 1808.82 761.93V699.035C1808.82 695.721 1811.51 693.035 1814.82 693.035H1873.39C1876.7 693.035 1879.39 695.721 1879.39 699.035V761.93ZM1879.39 685.138C1879.39 688.451 1876.7 691.138 1873.39 691.138H1814.82C1811.51 691.138 1808.82 688.451 1808.82 685.138V622.241C1808.82 618.927 1811.51 616.241 1814.82 616.241H1873.39C1876.7 616.241 1879.39 618.927 1879.39 622.241V685.138ZM1879.39 608.344C1879.39 611.657 1876.7 614.344 1873.39 614.344H1814.82C1811.51 614.344 1808.82 611.657 1808.82 608.344V545.449C1808.82 542.135 1811.51 539.449 1814.82 539.449H1873.39C1876.7 539.449 1879.39 542.135 1879.39 545.449V608.344ZM1879.39 531.551C1879.39 534.865 1876.7 537.551 1873.39 537.551H1814.82C1811.51 537.551 1808.82 534.865 1808.82 531.551V468.655C1808.82 465.341 1811.51 462.655 1814.82 462.655H1873.39C1876.7 462.655 1879.39 465.341 1879.39 468.655V531.551ZM1879.39 454.757C1879.39 458.071 1876.7 460.757 1873.39 460.757H1814.82C1811.51 460.757 1808.82 458.071 1808.82 454.757V391.862C1808.82 388.549 1811.51 385.862 1814.82 385.862H1873.39C1876.7 385.862 1879.39 388.549 1879.39 391.862V454.757ZM1879.39 377.965C1879.39 381.279 1876.7 383.965 1873.39 383.965H1814.82C1811.51 383.965 1808.82 381.279 1808.82 377.965V315.068C1808.82 311.755 1811.51 309.068 1814.82 309.068H1873.39C1876.7 309.068 1879.39 311.755 1879.39 315.068V377.965ZM1879.39 301.171C1879.39 304.485 1876.7 307.171 1873.39 307.171H1814.82C1811.51 307.171 1808.82 304.485 1808.82 301.171V238.276C1808.82 234.962 1811.51 232.276 1814.82 232.276H1873.39C1876.7 232.276 1879.39 234.962 1879.39 238.276V301.171ZM1879.39 224.379C1879.39 227.692 1876.7 230.379 1873.39 230.379H1814.82C1811.51 230.379 1808.82 227.692 1808.82 224.379V161.484C1808.82 158.17 1811.51 155.484 1814.82 155.484H1873.39C1876.7 155.484 1879.39 158.17 1879.39 161.484V224.379ZM1879.39 147.586C1879.39 150.9 1876.7 153.586 1873.39 153.586H1814.82C1811.51 153.586 1808.82 150.9 1808.82 147.586L1808.82 84.6897C1808.82 81.376 1811.51 78.6897 1814.82 78.6897H1873.39C1876.7 78.6897 1879.39 81.376 1879.39 84.6897L1879.39 147.586ZM1736.47 992.308C1736.47 995.622 1739.16 998.308 1742.47 998.308H1801.04C1804.35 998.308 1807.04 995.622 1807.04 992.308V929.414C1807.04 926.1 1804.35 923.414 1801.04 923.414H1742.47C1739.16 923.414 1736.47 926.1 1736.47 929.414V992.308ZM1736.47 915.516C1736.47 918.83 1739.16 921.516 1742.47 921.516H1801.04C1804.35 921.516 1807.04 918.83 1807.04 915.516V852.621C1807.04 849.308 1804.35 846.621 1801.04 846.621H1742.47C1739.16 846.621 1736.47 849.308 1736.47 852.621V915.516ZM1736.47 838.724C1736.47 842.038 1739.16 844.724 1742.47 844.724H1801.04C1804.35 844.724 1807.04 842.038 1807.04 838.724V775.827C1807.04 772.514 1804.35 769.827 1801.04 769.827H1742.47C1739.16 769.827 1736.47 772.514 1736.47 775.827V838.724ZM1736.47 761.93C1736.47 765.244 1739.16 767.93 1742.47 767.93H1801.04C1804.35 767.93 1807.04 765.244 1807.04 761.93V699.035C1807.04 695.721 1804.35 693.035 1801.04 693.035H1742.47C1739.16 693.035 1736.47 695.721 1736.47 699.035V761.93ZM1736.47 685.138C1736.47 688.451 1739.16 691.138 1742.47 691.138H1801.04C1804.35 691.138 1807.04 688.451 1807.04 685.138V622.241C1807.04 618.927 1804.35 616.241 1801.04 616.241H1742.47C1739.16 616.241 1736.47 618.927 1736.47 622.241V685.138ZM1736.47 608.344C1736.47 611.657 1739.16 614.344 1742.47 614.344H1801.04C1804.35 614.344 1807.04 611.657 1807.04 608.344V545.449C1807.04 542.135 1804.35 539.449 1801.04 539.449H1742.47C1739.16 539.449 1736.47 542.135 1736.47 545.449V608.344ZM1736.47 531.551C1736.47 534.865 1739.16 537.551 1742.47 537.551H1801.04C1804.35 537.551 1807.04 534.865 1807.04 531.551V468.655C1807.04 465.341 1804.35 462.655 1801.04 462.655H1742.47C1739.16 462.655 1736.47 465.341 1736.47 468.655V531.551ZM1736.47 454.757C1736.47 458.071 1739.16 460.757 1742.47 460.757H1801.04C1804.35 460.757 1807.04 458.071 1807.04 454.757V391.862C1807.04 388.549 1804.35 385.862 1801.04 385.862H1742.47C1739.16 385.862 1736.47 388.549 1736.47 391.862V454.757ZM1736.47 377.965C1736.47 381.279 1739.16 383.965 1742.47 383.965H1801.04C1804.35 383.965 1807.04 381.279 1807.04 377.965V315.068C1807.04 311.755 1804.35 309.068 1801.04 309.068H1742.47C1739.16 309.068 1736.47 311.755 1736.47 315.068V377.965ZM1736.47 301.171C1736.47 304.485 1739.16 307.171 1742.47 307.171H1801.04C1804.35 307.171 1807.04 304.485 1807.04 301.171V238.276C1807.04 234.962 1804.35 232.276 1801.04 232.276H1742.47C1739.16 232.276 1736.47 234.962 1736.47 238.276V301.171ZM1736.47 224.379C1736.47 227.692 1739.16 230.379 1742.47 230.379H1801.04C1804.35 230.379 1807.04 227.692 1807.04 224.379V161.484C1807.04 158.17 1804.35 155.484 1801.04 155.484H1742.47C1739.16 155.484 1736.47 158.17 1736.47 161.484V224.379ZM1736.47 147.586C1736.47 150.9 1739.16 153.586 1742.47 153.586H1801.04C1804.35 153.586 1807.04 150.9 1807.04 147.586L1807.04 84.6897C1807.04 81.376 1804.35 78.6897 1801.04 78.6897H1742.47C1739.16 78.6897 1736.47 81.376 1736.47 84.6897V147.586ZM1728.68 78.6897C1732 78.6897 1734.68 81.376 1734.68 84.6897V147.586C1734.68 150.9 1732 153.586 1728.68 153.586H1670.12C1666.8 153.586 1664.12 150.9 1664.12 147.586V84.6897C1664.12 81.376 1666.8 78.6897 1670.12 78.6897H1728.68ZM1728.68 155.484C1732 155.484 1734.68 158.17 1734.68 161.484V224.379C1734.68 227.692 1732 230.379 1728.68 230.379H1670.12C1666.8 230.379 1664.12 227.692 1664.12 224.379V161.484C1664.12 158.17 1666.8 155.484 1670.12 155.484H1728.68ZM1728.68 232.276C1732 232.276 1734.68 234.962 1734.68 238.276V301.171C1734.68 304.485 1732 307.171 1728.68 307.171H1670.12C1666.8 307.171 1664.12 304.485 1664.12 301.171V238.276C1664.12 234.962 1666.8 232.276 1670.12 232.276H1728.68ZM1728.68 309.068C1732 309.068 1734.68 311.755 1734.68 315.068V377.965C1734.68 381.279 1732 383.965 1728.68 383.965H1670.12C1666.8 383.965 1664.12 381.279 1664.12 377.965V315.068C1664.12 311.755 1666.8 309.068 1670.12 309.068H1728.68ZM1728.68 385.862C1732 385.862 1734.68 388.549 1734.68 391.862V454.757C1734.68 458.071 1732 460.757 1728.68 460.757H1670.12C1666.8 460.757 1664.12 458.071 1664.12 454.757V391.862C1664.12 388.549 1666.8 385.862 1670.12 385.862H1728.68ZM1728.68 462.655C1732 462.655 1734.68 465.341 1734.68 468.655V531.551C1734.68 534.865 1732 537.551 1728.68 537.551H1670.12C1666.8 537.551 1664.12 534.865 1664.12 531.551V468.655C1664.12 465.341 1666.8 462.655 1670.12 462.655H1728.68ZM1728.68 539.449C1732 539.449 1734.68 542.135 1734.68 545.449V608.344C1734.68 611.657 1732 614.344 1728.68 614.344H1670.12C1666.8 614.344 1664.12 611.657 1664.12 608.344V545.449C1664.12 542.135 1666.8 539.449 1670.12 539.449H1728.68ZM1728.68 616.241C1732 616.241 1734.68 618.927 1734.68 622.241V685.138C1734.68 688.451 1732 691.138 1728.68 691.138H1670.12C1666.8 691.138 1664.12 688.451 1664.12 685.138V622.241C1664.12 618.927 1666.8 616.241 1670.12 616.241H1728.68ZM1728.68 693.035C1732 693.035 1734.68 695.721 1734.68 699.035V761.93C1734.68 765.244 1732 767.93 1728.68 767.93H1670.12C1666.8 767.93 1664.12 765.244 1664.12 761.93V699.035C1664.12 695.721 1666.8 693.035 1670.12 693.035H1728.68ZM1728.68 769.827C1732 769.827 1734.68 772.514 1734.68 775.827V838.724C1734.68 842.038 1732 844.724 1728.68 844.724H1670.12C1666.8 844.724 1664.12 842.038 1664.12 838.724V775.827C1664.12 772.514 1666.8 769.827 1670.12 769.827H1728.68ZM1728.68 846.621C1732 846.621 1734.68 849.308 1734.68 852.621V915.516C1734.68 918.83 1732 921.516 1728.68 921.516H1670.12C1666.8 921.516 1664.12 918.83 1664.12 915.516V852.621C1664.12 849.308 1666.8 846.621 1670.12 846.621H1728.68ZM1728.68 923.414C1732 923.414 1734.68 926.1 1734.68 929.414V992.308C1734.68 995.622 1732 998.308 1728.68 998.308H1670.12C1666.8 998.308 1664.12 995.622 1664.12 992.308V929.414C1664.12 926.1 1666.8 923.414 1670.12 923.414H1728.68ZM1591.77 992.308C1591.77 995.622 1594.45 998.308 1597.77 998.308H1656.33C1659.64 998.308 1662.33 995.622 1662.33 992.308V929.414C1662.33 926.1 1659.64 923.414 1656.33 923.414H1597.77C1594.45 923.414 1591.77 926.1 1591.77 929.414V992.308ZM1591.77 915.516C1591.77 918.83 1594.45 921.516 1597.77 921.516H1656.33C1659.64 921.516 1662.33 918.83 1662.33 915.516V852.621C1662.33 849.308 1659.64 846.621 1656.33 846.621H1597.77C1594.45 846.621 1591.77 849.308 1591.77 852.621V915.516ZM1591.77 838.724C1591.77 842.038 1594.45 844.724 1597.77 844.724H1656.33C1659.64 844.724 1662.33 842.038 1662.33 838.724V775.827C1662.33 772.514 1659.64 769.827 1656.33 769.827H1597.77C1594.45 769.827 1591.77 772.514 1591.77 775.827V838.724ZM1591.77 761.93C1591.77 765.244 1594.45 767.93 1597.77 767.93H1656.33C1659.64 767.93 1662.33 765.244 1662.33 761.93V699.035C1662.33 695.721 1659.64 693.035 1656.33 693.035H1597.77C1594.45 693.035 1591.77 695.721 1591.77 699.035V761.93ZM1591.77 685.138C1591.77 688.451 1594.45 691.138 1597.77 691.138H1656.33C1659.64 691.138 1662.33 688.451 1662.33 685.138V622.241C1662.33 618.927 1659.64 616.241 1656.33 616.241H1597.77C1594.45 616.241 1591.77 618.927 1591.77 622.241V685.138ZM1591.77 608.344C1591.77 611.657 1594.45 614.344 1597.77 614.344H1656.33C1659.64 614.344 1662.33 611.657 1662.33 608.344V545.449C1662.33 542.135 1659.64 539.449 1656.33 539.449H1597.77C1594.45 539.449 1591.77 542.135 1591.77 545.449V608.344ZM1591.77 531.551C1591.77 534.865 1594.45 537.551 1597.77 537.551H1656.33C1659.64 537.551 1662.33 534.865 1662.33 531.551V468.655C1662.33 465.341 1659.64 462.655 1656.33 462.655H1597.77C1594.45 462.655 1591.77 465.341 1591.77 468.655V531.551ZM1591.77 454.757C1591.77 458.071 1594.45 460.757 1597.77 460.757H1656.33C1659.64 460.757 1662.33 458.071 1662.33 454.757V391.862C1662.33 388.549 1659.64 385.862 1656.33 385.862H1597.77C1594.45 385.862 1591.77 388.549 1591.77 391.862V454.757ZM1591.77 377.965C1591.77 381.279 1594.45 383.965 1597.77 383.965H1656.33C1659.64 383.965 1662.33 381.279 1662.33 377.965V315.068C1662.33 311.755 1659.64 309.068 1656.33 309.068H1597.77C1594.45 309.068 1591.77 311.755 1591.77 315.068V377.965ZM1591.77 301.171C1591.77 304.485 1594.45 307.171 1597.77 307.171H1656.33C1659.64 307.171 1662.33 304.485 1662.33 301.171V238.276C1662.33 234.962 1659.64 232.276 1656.33 232.276H1597.77C1594.45 232.276 1591.77 234.962 1591.77 238.276V301.171ZM1591.77 224.379C1591.77 227.692 1594.45 230.379 1597.77 230.379H1656.33C1659.64 230.379 1662.33 227.692 1662.33 224.379V161.484C1662.33 158.17 1659.64 155.484 1656.33 155.484H1597.77C1594.45 155.484 1591.77 158.17 1591.77 161.484V224.379ZM1591.77 147.586C1591.77 150.9 1594.45 153.586 1597.77 153.586H1656.33C1659.64 153.586 1662.33 150.9 1662.33 147.586V84.6897C1662.33 81.376 1659.64 78.6897 1656.33 78.6897H1597.77C1594.45 78.6897 1591.77 81.376 1591.77 84.6897V147.586ZM1583.98 78.6897C1587.29 78.6897 1589.98 81.376 1589.98 84.6897V147.586C1589.98 150.9 1587.29 153.586 1583.98 153.586H1525.41C1522.1 153.586 1519.41 150.9 1519.41 147.586V84.6897C1519.41 81.376 1522.1 78.6897 1525.41 78.6897H1583.98ZM1583.98 155.484C1587.29 155.484 1589.98 158.17 1589.98 161.484V224.379C1589.98 227.692 1587.29 230.379 1583.98 230.379H1525.41C1522.1 230.379 1519.41 227.692 1519.41 224.379V161.484C1519.41 158.17 1522.1 155.484 1525.41 155.484H1583.98ZM1583.98 232.276C1587.29 232.276 1589.98 234.962 1589.98 238.276V301.171C1589.98 304.485 1587.29 307.171 1583.98 307.171H1525.41C1522.1 307.171 1519.41 304.485 1519.41 301.171V238.276C1519.41 234.962 1522.1 232.276 1525.41 232.276H1583.98ZM1583.98 309.068C1587.29 309.068 1589.98 311.755 1589.98 315.068V377.965C1589.98 381.279 1587.29 383.965 1583.98 383.965H1525.41C1522.1 383.965 1519.41 381.279 1519.41 377.965V315.068C1519.41 311.755 1522.1 309.068 1525.41 309.068H1583.98ZM1583.98 385.862C1587.29 385.862 1589.98 388.549 1589.98 391.862V454.757C1589.98 458.071 1587.29 460.757 1583.98 460.757H1525.41C1522.1 460.757 1519.41 458.071 1519.41 454.757V391.862C1519.41 388.549 1522.1 385.862 1525.41 385.862H1583.98ZM1583.98 462.655C1587.29 462.655 1589.98 465.341 1589.98 468.655V531.551C1589.98 534.865 1587.29 537.551 1583.98 537.551H1525.41C1522.1 537.551 1519.41 534.865 1519.41 531.551V468.655C1519.41 465.341 1522.1 462.655 1525.41 462.655H1583.98ZM1583.98 539.449C1587.29 539.449 1589.98 542.135 1589.98 545.449V608.344C1589.98 611.657 1587.29 614.344 1583.98 614.344H1525.41C1522.1 614.344 1519.41 611.657 1519.41 608.344V545.449C1519.41 542.135 1522.1 539.449 1525.41 539.449H1583.98ZM1583.98 616.241C1587.29 616.241 1589.98 618.927 1589.98 622.241V685.138C1589.98 688.451 1587.29 691.138 1583.98 691.138H1525.41C1522.1 691.138 1519.41 688.451 1519.41 685.138V622.241C1519.41 618.927 1522.1 616.241 1525.41 616.241H1583.98ZM1583.98 693.035C1587.29 693.035 1589.98 695.721 1589.98 699.035V761.93C1589.98 765.244 1587.29 767.93 1583.98 767.93H1525.41C1522.1 767.93 1519.41 765.244 1519.41 761.93V699.035C1519.41 695.721 1522.1 693.035 1525.41 693.035H1583.98ZM1583.98 769.827C1587.29 769.827 1589.98 772.514 1589.98 775.827V838.724C1589.98 842.038 1587.29 844.724 1583.98 844.724H1525.41C1522.1 844.724 1519.41 842.038 1519.41 838.724V775.827C1519.41 772.514 1522.1 769.827 1525.41 769.827H1583.98ZM1583.98 846.621C1587.29 846.621 1589.98 849.308 1589.98 852.621V915.516C1589.98 918.83 1587.29 921.516 1583.98 921.516H1525.41C1522.1 921.516 1519.41 918.83 1519.41 915.516V852.621C1519.41 849.308 1522.1 846.621 1525.41 846.621H1583.98ZM1583.98 923.414C1587.29 923.414 1589.98 926.1 1589.98 929.414V992.308C1589.98 995.622 1587.29 998.308 1583.98 998.308H1525.41C1522.1 998.308 1519.41 995.622 1519.41 992.308V929.414C1519.41 926.1 1522.1 923.414 1525.41 923.414H1583.98ZM1447.06 992.308C1447.06 995.622 1449.75 998.308 1453.06 998.308H1511.62C1514.94 998.308 1517.62 995.622 1517.62 992.308V929.414C1517.62 926.1 1514.94 923.414 1511.62 923.414H1453.06C1449.75 923.414 1447.06 926.1 1447.06 929.414V992.308ZM1447.06 915.516C1447.06 918.83 1449.75 921.516 1453.06 921.516H1511.62C1514.94 921.516 1517.62 918.83 1517.62 915.516V852.621C1517.62 849.308 1514.94 846.621 1511.62 846.621H1453.06C1449.75 846.621 1447.06 849.308 1447.06 852.621V915.516ZM1447.06 838.724C1447.06 842.038 1449.75 844.724 1453.06 844.724H1511.62C1514.94 844.724 1517.62 842.038 1517.62 838.724V775.827C1517.62 772.514 1514.94 769.827 1511.62 769.827H1453.06C1449.75 769.827 1447.06 772.514 1447.06 775.827V838.724ZM1447.06 761.93C1447.06 765.244 1449.75 767.93 1453.06 767.93H1511.62C1514.94 767.93 1517.62 765.244 1517.62 761.93V699.035C1517.62 695.721 1514.94 693.035 1511.62 693.035H1453.06C1449.75 693.035 1447.06 695.721 1447.06 699.035V761.93ZM1447.06 685.138C1447.06 688.451 1449.75 691.138 1453.06 691.138H1511.62C1514.94 691.138 1517.62 688.451 1517.62 685.138V622.241C1517.62 618.927 1514.94 616.241 1511.62 616.241H1453.06C1449.75 616.241 1447.06 618.927 1447.06 622.241V685.138ZM1447.06 608.344C1447.06 611.657 1449.75 614.344 1453.06 614.344H1511.62C1514.94 614.344 1517.62 611.657 1517.62 608.344V545.449C1517.62 542.135 1514.94 539.449 1511.62 539.449L1453.06 539.449C1449.75 539.449 1447.06 542.135 1447.06 545.449V608.344ZM1447.06 531.551C1447.06 534.865 1449.75 537.551 1453.06 537.551L1511.62 537.551C1514.94 537.551 1517.62 534.865 1517.62 531.551V468.655C1517.62 465.341 1514.94 462.655 1511.62 462.655L1453.06 462.655C1449.75 462.655 1447.06 465.341 1447.06 468.655V531.551ZM1447.06 454.757C1447.06 458.071 1449.75 460.757 1453.06 460.757L1511.62 460.757C1514.94 460.757 1517.62 458.071 1517.62 454.757V391.862C1517.62 388.549 1514.94 385.862 1511.62 385.862L1453.06 385.862C1449.75 385.862 1447.06 388.549 1447.06 391.862V454.757ZM1447.06 377.965C1447.06 381.279 1449.75 383.965 1453.06 383.965L1511.62 383.965C1514.94 383.965 1517.62 381.279 1517.62 377.965V315.068C1517.62 311.755 1514.94 309.068 1511.62 309.068L1453.06 309.068C1449.75 309.068 1447.06 311.755 1447.06 315.068V377.965ZM1447.06 301.171C1447.06 304.485 1449.75 307.171 1453.06 307.171L1511.62 307.171C1514.94 307.171 1517.62 304.485 1517.62 301.171V238.276C1517.62 234.962 1514.94 232.276 1511.62 232.276L1453.06 232.276C1449.75 232.276 1447.06 234.962 1447.06 238.276V301.171ZM1447.06 224.379C1447.06 227.692 1449.75 230.379 1453.06 230.379L1511.62 230.379C1514.94 230.379 1517.62 227.692 1517.62 224.379V161.484C1517.62 158.17 1514.94 155.484 1511.62 155.484L1453.06 155.484C1449.75 155.484 1447.06 158.17 1447.06 161.484V224.379ZM1447.06 147.586C1447.06 150.9 1449.75 153.586 1453.06 153.586L1511.62 153.586C1514.94 153.586 1517.62 150.9 1517.62 147.586V84.6897C1517.62 81.376 1514.94 78.6897 1511.62 78.6897L1453.06 78.6897C1449.75 78.6897 1447.06 81.376 1447.06 84.6897V147.586ZM1439.27 78.6897C1442.59 78.6897 1445.27 81.376 1445.27 84.6897V147.586C1445.27 150.9 1442.59 153.586 1439.27 153.586H1380.71C1377.39 153.586 1374.71 150.9 1374.71 147.586V84.6897C1374.71 81.376 1377.39 78.6897 1380.71 78.6897H1439.27ZM1439.27 155.484C1442.59 155.484 1445.27 158.17 1445.27 161.484V224.379C1445.27 227.692 1442.59 230.379 1439.27 230.379H1380.71C1377.39 230.379 1374.71 227.692 1374.71 224.379V161.484C1374.71 158.17 1377.39 155.484 1380.71 155.484H1439.27ZM1439.27 232.276C1442.59 232.276 1445.27 234.962 1445.27 238.276V301.171C1445.27 304.485 1442.59 307.171 1439.27 307.171H1380.71C1377.39 307.171 1374.71 304.485 1374.71 301.171V238.276C1374.71 234.962 1377.39 232.276 1380.71 232.276H1439.27ZM1439.27 309.068C1442.59 309.068 1445.27 311.755 1445.27 315.068V377.965C1445.27 381.279 1442.59 383.965 1439.27 383.965H1380.71C1377.39 383.965 1374.71 381.279 1374.71 377.965V315.068C1374.71 311.755 1377.39 309.068 1380.71 309.068H1439.27ZM1439.27 385.862C1442.59 385.862 1445.27 388.549 1445.27 391.862V454.757C1445.27 458.071 1442.59 460.757 1439.27 460.757H1380.71C1377.39 460.757 1374.71 458.071 1374.71 454.757V391.862C1374.71 388.549 1377.39 385.862 1380.71 385.862H1439.27ZM1439.27 462.655C1442.59 462.655 1445.27 465.341 1445.27 468.655V531.551C1445.27 534.865 1442.59 537.551 1439.27 537.551H1380.71C1377.39 537.551 1374.71 534.865 1374.71 531.551V468.655C1374.71 465.341 1377.39 462.655 1380.71 462.655H1439.27ZM1439.27 539.449C1442.59 539.449 1445.27 542.135 1445.27 545.449V608.344C1445.27 611.657 1442.59 614.344 1439.27 614.344H1380.71C1377.39 614.344 1374.71 611.657 1374.71 608.344V545.449C1374.71 542.135 1377.39 539.449 1380.71 539.449H1439.27ZM1439.27 616.241C1442.59 616.241 1445.27 618.927 1445.27 622.241V685.138C1445.27 688.451 1442.59 691.138 1439.27 691.138H1380.71C1377.39 691.138 1374.71 688.451 1374.71 685.138V622.241C1374.71 618.927 1377.39 616.241 1380.71 616.241H1439.27ZM1439.27 693.035C1442.59 693.035 1445.27 695.721 1445.27 699.035V761.93C1445.27 765.244 1442.59 767.93 1439.27 767.93H1380.71C1377.39 767.93 1374.71 765.244 1374.71 761.93V699.035C1374.71 695.721 1377.39 693.035 1380.71 693.035H1439.27ZM1439.27 769.827C1442.59 769.827 1445.27 772.514 1445.27 775.827V838.724C1445.27 842.038 1442.59 844.724 1439.27 844.724H1380.71C1377.39 844.724 1374.71 842.038 1374.71 838.724V775.827C1374.71 772.514 1377.39 769.827 1380.71 769.827H1439.27ZM1439.27 846.621C1442.59 846.621 1445.27 849.308 1445.27 852.621V915.516C1445.27 918.83 1442.59 921.516 1439.27 921.516H1380.71C1377.39 921.516 1374.71 918.83 1374.71 915.516V852.621C1374.71 849.308 1377.39 846.621 1380.71 846.621H1439.27ZM1439.27 923.414C1442.59 923.414 1445.27 926.1 1445.27 929.414V992.308C1445.27 995.622 1442.59 998.308 1439.27 998.308L1380.71 998.308C1377.39 998.308 1374.71 995.622 1374.71 992.308V929.414C1374.71 926.1 1377.39 923.414 1380.71 923.414H1439.27ZM1302.35 992.308C1302.35 995.622 1305.04 998.308 1308.35 998.308H1366.92C1370.23 998.308 1372.92 995.622 1372.92 992.308V929.414C1372.92 926.1 1370.23 923.414 1366.92 923.414L1308.35 923.414C1305.04 923.414 1302.35 926.1 1302.35 929.414V992.308ZM1302.35 915.516C1302.35 918.83 1305.04 921.516 1308.35 921.516L1366.92 921.516C1370.23 921.516 1372.92 918.83 1372.92 915.516V852.621C1372.92 849.308 1370.23 846.621 1366.92 846.621L1308.35 846.621C1305.04 846.621 1302.35 849.308 1302.35 852.621V915.516ZM1302.35 838.724C1302.35 842.038 1305.04 844.724 1308.35 844.724L1366.92 844.724C1370.23 844.724 1372.92 842.038 1372.92 838.724V775.827C1372.92 772.514 1370.23 769.827 1366.92 769.827H1308.35C1305.04 769.827 1302.35 772.514 1302.35 775.827V838.724ZM1302.35 761.93C1302.35 765.244 1305.04 767.93 1308.35 767.93H1366.92C1370.23 767.93 1372.92 765.244 1372.92 761.93V699.035C1372.92 695.721 1370.23 693.035 1366.92 693.035H1308.35C1305.04 693.035 1302.35 695.721 1302.35 699.035V761.93ZM1302.35 685.138C1302.35 688.451 1305.04 691.138 1308.35 691.138H1366.92C1370.23 691.138 1372.92 688.451 1372.92 685.138V622.241C1372.92 618.927 1370.23 616.241 1366.92 616.241H1308.35C1305.04 616.241 1302.35 618.927 1302.35 622.241V685.138ZM1302.35 608.344C1302.35 611.657 1305.04 614.344 1308.35 614.344H1366.92C1370.23 614.344 1372.92 611.657 1372.92 608.344V545.449C1372.92 542.135 1370.23 539.449 1366.92 539.449H1308.35C1305.04 539.449 1302.35 542.135 1302.35 545.449V608.344ZM1302.35 531.551C1302.35 534.865 1305.04 537.551 1308.35 537.551H1366.92C1370.23 537.551 1372.92 534.865 1372.92 531.551V468.655C1372.92 465.341 1370.23 462.655 1366.92 462.655H1308.35C1305.04 462.655 1302.35 465.341 1302.35 468.655V531.551ZM1302.35 454.757C1302.35 458.071 1305.04 460.757 1308.35 460.757H1366.92C1370.23 460.757 1372.92 458.071 1372.92 454.757V391.862C1372.92 388.549 1370.23 385.862 1366.92 385.862H1308.35C1305.04 385.862 1302.35 388.549 1302.35 391.862V454.757ZM1302.35 377.965C1302.35 381.279 1305.04 383.965 1308.35 383.965H1366.92C1370.23 383.965 1372.92 381.279 1372.92 377.965V315.068C1372.92 311.755 1370.23 309.068 1366.92 309.068H1308.35C1305.04 309.068 1302.35 311.755 1302.35 315.068V377.965ZM1302.35 301.171C1302.35 304.485 1305.04 307.171 1308.35 307.171H1366.92C1370.23 307.171 1372.92 304.485 1372.92 301.171V238.276C1372.92 234.962 1370.23 232.276 1366.92 232.276H1308.35C1305.04 232.276 1302.35 234.962 1302.35 238.276V301.171ZM1302.35 224.379C1302.35 227.692 1305.04 230.379 1308.35 230.379H1366.92C1370.23 230.379 1372.92 227.692 1372.92 224.379V161.484C1372.92 158.17 1370.23 155.484 1366.92 155.484H1308.35C1305.04 155.484 1302.35 158.17 1302.35 161.484V224.379ZM1302.35 147.586C1302.35 150.9 1305.04 153.586 1308.35 153.586H1366.92C1370.23 153.586 1372.92 150.9 1372.92 147.586V84.6897C1372.92 81.376 1370.23 78.6897 1366.92 78.6897H1308.35C1305.04 78.6897 1302.35 81.376 1302.35 84.6897V147.586ZM1294.57 78.6897C1297.88 78.6897 1300.57 81.376 1300.57 84.6897V147.586C1300.57 150.9 1297.88 153.586 1294.57 153.586H1236C1232.69 153.586 1230 150.9 1230 147.586V84.6897C1230 81.376 1232.69 78.6897 1236 78.6897H1294.57ZM1294.57 155.484C1297.88 155.484 1300.57 158.17 1300.57 161.484V224.379C1300.57 227.692 1297.88 230.379 1294.57 230.379H1236C1232.69 230.379 1230 227.692 1230 224.379V161.484C1230 158.17 1232.69 155.484 1236 155.484H1294.57ZM1294.57 232.276C1297.88 232.276 1300.57 234.962 1300.57 238.276V301.171C1300.57 304.485 1297.88 307.171 1294.57 307.171H1236C1232.69 307.171 1230 304.485 1230 301.171V238.276C1230 234.962 1232.69 232.276 1236 232.276H1294.57ZM1294.57 309.068C1297.88 309.068 1300.57 311.755 1300.57 315.068V377.965C1300.57 381.279 1297.88 383.965 1294.57 383.965H1236C1232.69 383.965 1230 381.279 1230 377.965V315.068C1230 311.755 1232.69 309.068 1236 309.068H1294.57ZM1294.57 385.862C1297.88 385.862 1300.57 388.549 1300.57 391.862V454.757C1300.57 458.071 1297.88 460.757 1294.57 460.757H1236C1232.69 460.757 1230 458.071 1230 454.757V391.862C1230 388.549 1232.69 385.862 1236 385.862H1294.57ZM1294.57 462.655C1297.88 462.655 1300.57 465.341 1300.57 468.655V531.551C1300.57 534.865 1297.88 537.551 1294.57 537.551H1236C1232.69 537.551 1230 534.865 1230 531.551V468.655C1230 465.341 1232.69 462.655 1236 462.655H1294.57ZM1294.57 539.449C1297.88 539.449 1300.57 542.135 1300.57 545.449V608.344C1300.57 611.657 1297.88 614.344 1294.57 614.344H1236C1232.69 614.344 1230 611.657 1230 608.344V545.449C1230 542.135 1232.69 539.449 1236 539.449H1294.57ZM1294.57 616.241C1297.88 616.241 1300.57 618.927 1300.57 622.241V685.138C1300.57 688.451 1297.88 691.138 1294.57 691.138H1236C1232.69 691.138 1230 688.451 1230 685.138V622.241C1230 618.927 1232.69 616.241 1236 616.241H1294.57ZM1294.57 693.035C1297.88 693.035 1300.57 695.721 1300.57 699.035V761.93C1300.57 765.244 1297.88 767.93 1294.57 767.93H1236C1232.69 767.93 1230 765.244 1230 761.93V699.035C1230 695.721 1232.69 693.035 1236 693.035H1294.57ZM1294.57 769.827C1297.88 769.827 1300.57 772.514 1300.57 775.827V838.724C1300.57 842.038 1297.88 844.724 1294.57 844.724H1236C1232.69 844.724 1230 842.038 1230 838.724V775.827C1230 772.514 1232.69 769.827 1236 769.827H1294.57ZM1294.57 846.621C1297.88 846.621 1300.57 849.308 1300.57 852.621V915.516C1300.57 918.83 1297.88 921.516 1294.57 921.516H1236C1232.69 921.516 1230 918.83 1230 915.516V852.621C1230 849.308 1232.69 846.621 1236 846.621H1294.57ZM1294.57 923.414C1297.88 923.414 1300.57 926.1 1300.57 929.414V992.308C1300.57 995.622 1297.88 998.308 1294.57 998.308H1236C1232.69 998.308 1230 995.622 1230 992.308V929.414C1230 926.1 1232.69 923.414 1236 923.414H1294.57ZM1157.65 992.308C1157.65 995.622 1160.33 998.308 1163.65 998.308H1222.21C1225.53 998.308 1228.21 995.622 1228.21 992.308V929.414C1228.21 926.1 1225.53 923.414 1222.21 923.414H1163.65C1160.33 923.414 1157.65 926.1 1157.65 929.414V992.308ZM1157.65 915.516C1157.65 918.83 1160.33 921.516 1163.65 921.516H1222.21C1225.53 921.516 1228.21 918.83 1228.21 915.516V852.621C1228.21 849.308 1225.53 846.621 1222.21 846.621H1163.65C1160.33 846.621 1157.65 849.308 1157.65 852.621V915.516ZM1157.65 838.724C1157.65 842.038 1160.33 844.724 1163.65 844.724H1222.21C1225.53 844.724 1228.21 842.038 1228.21 838.724V775.827C1228.21 772.514 1225.53 769.827 1222.21 769.827H1163.65C1160.33 769.827 1157.65 772.514 1157.65 775.827V838.724ZM1157.65 761.93C1157.65 765.244 1160.33 767.93 1163.65 767.93H1222.21C1225.53 767.93 1228.21 765.244 1228.21 761.93V699.035C1228.21 695.721 1225.53 693.035 1222.21 693.035H1163.65C1160.33 693.035 1157.65 695.721 1157.65 699.035V761.93ZM1157.65 685.138C1157.65 688.451 1160.33 691.138 1163.65 691.138H1222.21C1225.53 691.138 1228.21 688.451 1228.21 685.138V622.241C1228.21 618.927 1225.53 616.241 1222.21 616.241H1163.65C1160.33 616.241 1157.65 618.927 1157.65 622.241V685.138ZM1157.65 608.344C1157.65 611.657 1160.33 614.344 1163.65 614.344H1222.21C1225.53 614.344 1228.21 611.657 1228.21 608.344V545.449C1228.21 542.135 1225.53 539.449 1222.21 539.449H1163.65C1160.33 539.449 1157.65 542.135 1157.65 545.449V608.344ZM1157.65 531.551C1157.65 534.865 1160.33 537.551 1163.65 537.551H1222.21C1225.53 537.551 1228.21 534.865 1228.21 531.551V468.655C1228.21 465.341 1225.53 462.655 1222.21 462.655H1163.65C1160.33 462.655 1157.65 465.341 1157.65 468.655V531.551ZM1157.65 454.757C1157.65 458.071 1160.33 460.757 1163.65 460.757H1222.21C1225.53 460.757 1228.21 458.071 1228.21 454.757V391.862C1228.21 388.549 1225.53 385.862 1222.21 385.862H1163.65C1160.33 385.862 1157.65 388.549 1157.65 391.862V454.757ZM1157.65 377.965C1157.65 381.279 1160.33 383.965 1163.65 383.965H1222.21C1225.53 383.965 1228.21 381.279 1228.21 377.965V315.068C1228.21 311.755 1225.53 309.068 1222.21 309.068H1163.65C1160.33 309.068 1157.65 311.755 1157.65 315.068V377.965ZM1157.65 301.171C1157.65 304.485 1160.33 307.171 1163.65 307.171H1222.21C1225.53 307.171 1228.21 304.485 1228.21 301.171V238.276C1228.21 234.962 1225.53 232.276 1222.21 232.276H1163.65C1160.33 232.276 1157.65 234.962 1157.65 238.276V301.171ZM1157.65 224.379C1157.65 227.692 1160.33 230.379 1163.65 230.379H1222.21C1225.53 230.379 1228.21 227.692 1228.21 224.379V161.484C1228.21 158.17 1225.53 155.484 1222.21 155.484H1163.65C1160.33 155.484 1157.65 158.17 1157.65 161.484V224.379ZM1157.65 147.586C1157.65 150.9 1160.33 153.586 1163.65 153.586H1222.21C1225.53 153.586 1228.21 150.9 1228.21 147.586V84.6897C1228.21 81.376 1225.53 78.6897 1222.21 78.6897H1163.65C1160.33 78.6897 1157.65 81.376 1157.65 84.6897V147.586ZM1149.86 78.6897C1153.17 78.6897 1155.86 81.376 1155.86 84.6897V147.586C1155.86 150.9 1153.17 153.586 1149.86 153.586H1091.29C1087.98 153.586 1085.29 150.9 1085.29 147.586V84.6897C1085.29 81.376 1087.98 78.6897 1091.29 78.6897H1149.86ZM1149.86 155.484C1153.17 155.484 1155.86 158.17 1155.86 161.484V224.379C1155.86 227.692 1153.17 230.379 1149.86 230.379H1091.29C1087.98 230.379 1085.29 227.692 1085.29 224.379V161.484C1085.29 158.17 1087.98 155.484 1091.29 155.484H1149.86ZM1149.86 232.276C1153.17 232.276 1155.86 234.962 1155.86 238.276V301.171C1155.86 304.485 1153.17 307.171 1149.86 307.171H1091.29C1087.98 307.171 1085.29 304.485 1085.29 301.171V238.276C1085.29 234.962 1087.98 232.276 1091.29 232.276H1149.86ZM1149.86 309.068C1153.17 309.068 1155.86 311.755 1155.86 315.068V377.965C1155.86 381.279 1153.17 383.965 1149.86 383.965H1091.29C1087.98 383.965 1085.29 381.279 1085.29 377.965V315.068C1085.29 311.755 1087.98 309.068 1091.29 309.068H1149.86ZM1149.86 385.862C1153.17 385.862 1155.86 388.549 1155.86 391.862V454.757C1155.86 458.071 1153.17 460.757 1149.86 460.757H1091.29C1087.98 460.757 1085.29 458.071 1085.29 454.757V391.862C1085.29 388.549 1087.98 385.862 1091.29 385.862H1149.86ZM1149.86 462.655C1153.17 462.655 1155.86 465.341 1155.86 468.655V531.551C1155.86 534.865 1153.17 537.551 1149.86 537.551H1091.29C1087.98 537.551 1085.29 534.865 1085.29 531.551V468.655C1085.29 465.341 1087.98 462.655 1091.29 462.655H1149.86ZM1149.86 539.449C1153.17 539.449 1155.86 542.135 1155.86 545.449V608.344C1155.86 611.657 1153.17 614.344 1149.86 614.344H1091.29C1087.98 614.344 1085.29 611.657 1085.29 608.344V545.449C1085.29 542.135 1087.98 539.449 1091.29 539.449H1149.86ZM1149.86 616.241C1153.17 616.241 1155.86 618.927 1155.86 622.241V685.138C1155.86 688.451 1153.17 691.138 1149.86 691.138H1091.29C1087.98 691.138 1085.29 688.451 1085.29 685.138V622.241C1085.29 618.927 1087.98 616.241 1091.29 616.241H1149.86ZM1149.86 693.035C1153.17 693.035 1155.86 695.721 1155.86 699.035V761.93C1155.86 765.244 1153.17 767.93 1149.86 767.93H1091.29C1087.98 767.93 1085.29 765.244 1085.29 761.93V699.035C1085.29 695.721 1087.98 693.035 1091.29 693.035H1149.86ZM1149.86 769.827C1153.17 769.827 1155.86 772.514 1155.86 775.827V838.724C1155.86 842.038 1153.17 844.724 1149.86 844.724H1091.29C1087.98 844.724 1085.29 842.038 1085.29 838.724V775.827C1085.29 772.514 1087.98 769.827 1091.29 769.827H1149.86ZM1149.86 846.621C1153.17 846.621 1155.86 849.308 1155.86 852.621V915.516C1155.86 918.83 1153.17 921.516 1149.86 921.516H1091.29C1087.98 921.516 1085.29 918.83 1085.29 915.516V852.621C1085.29 849.308 1087.98 846.621 1091.29 846.621H1149.86ZM1149.86 923.414C1153.17 923.414 1155.86 926.1 1155.86 929.414V992.308C1155.86 995.622 1153.17 998.308 1149.86 998.308H1091.29C1087.98 998.308 1085.29 995.622 1085.29 992.308V929.414C1085.29 926.1 1087.98 923.414 1091.29 923.414H1149.86ZM1012.94 992.308C1012.94 995.622 1015.63 998.308 1018.94 998.308H1077.51C1080.82 998.308 1083.51 995.622 1083.51 992.308V929.414C1083.51 926.1 1080.82 923.414 1077.51 923.414H1018.94C1015.63 923.414 1012.94 926.1 1012.94 929.414V992.308ZM1012.94 915.516C1012.94 918.83 1015.63 921.516 1018.94 921.516H1077.51C1080.82 921.516 1083.51 918.83 1083.51 915.516V852.621C1083.51 849.308 1080.82 846.621 1077.51 846.621H1018.94C1015.63 846.621 1012.94 849.308 1012.94 852.621V915.516ZM1012.94 838.724C1012.94 842.038 1015.63 844.724 1018.94 844.724H1077.51C1080.82 844.724 1083.51 842.038 1083.51 838.724V775.827C1083.51 772.514 1080.82 769.827 1077.51 769.827H1018.94C1015.63 769.827 1012.94 772.514 1012.94 775.827V838.724ZM1012.94 761.93C1012.94 765.244 1015.63 767.93 1018.94 767.93H1077.51C1080.82 767.93 1083.51 765.244 1083.51 761.93V699.035C1083.51 695.721 1080.82 693.035 1077.51 693.035H1018.94C1015.63 693.035 1012.94 695.721 1012.94 699.035V761.93ZM1012.94 685.138C1012.94 688.451 1015.63 691.138 1018.94 691.138H1077.51C1080.82 691.138 1083.51 688.451 1083.51 685.138V622.241C1083.51 618.927 1080.82 616.241 1077.51 616.241H1018.94C1015.63 616.241 1012.94 618.927 1012.94 622.241V685.138ZM1012.94 608.344C1012.94 611.657 1015.63 614.344 1018.94 614.344H1077.51C1080.82 614.344 1083.51 611.657 1083.51 608.344V545.449C1083.51 542.135 1080.82 539.449 1077.51 539.449H1018.94C1015.63 539.449 1012.94 542.135 1012.94 545.449V608.344ZM1012.94 531.551C1012.94 534.865 1015.63 537.551 1018.94 537.551H1077.51C1080.82 537.551 1083.51 534.865 1083.51 531.551V468.655C1083.51 465.341 1080.82 462.655 1077.51 462.655H1018.94C1015.63 462.655 1012.94 465.341 1012.94 468.655V531.551ZM1012.94 454.757C1012.94 458.071 1015.63 460.757 1018.94 460.757H1077.51C1080.82 460.757 1083.51 458.071 1083.51 454.757V391.862C1083.51 388.549 1080.82 385.862 1077.51 385.862H1018.94C1015.63 385.862 1012.94 388.549 1012.94 391.862V454.757ZM1012.94 377.965C1012.94 381.279 1015.63 383.965 1018.94 383.965H1077.51C1080.82 383.965 1083.51 381.279 1083.51 377.965V315.068C1083.51 311.755 1080.82 309.068 1077.51 309.068H1018.94C1015.63 309.068 1012.94 311.755 1012.94 315.068V377.965ZM1012.94 301.171C1012.94 304.485 1015.63 307.171 1018.94 307.171H1077.51C1080.82 307.171 1083.51 304.485 1083.51 301.171V238.276C1083.51 234.962 1080.82 232.276 1077.51 232.276H1018.94C1015.63 232.276 1012.94 234.962 1012.94 238.276V301.171ZM1012.94 224.379C1012.94 227.692 1015.63 230.379 1018.94 230.379H1077.51C1080.82 230.379 1083.51 227.692 1083.51 224.379V161.484C1083.51 158.17 1080.82 155.484 1077.51 155.484H1018.94C1015.63 155.484 1012.94 158.17 1012.94 161.484V224.379ZM1012.94 147.586C1012.94 150.9 1015.63 153.586 1018.94 153.586H1077.51C1080.82 153.586 1083.51 150.9 1083.51 147.586V84.6897C1083.51 81.376 1080.82 78.6897 1077.51 78.6897H1018.94C1015.63 78.6897 1012.94 81.376 1012.94 84.6897V147.586ZM1005.15 78.6897C1008.47 78.6897 1011.15 81.376 1011.15 84.6897V147.586C1011.15 150.9 1008.47 153.586 1005.15 153.586H946.587C943.274 153.586 940.587 150.9 940.587 147.586V84.6897C940.587 81.376 943.274 78.6897 946.587 78.6897H1005.15ZM1005.15 155.484C1008.47 155.484 1011.15 158.17 1011.15 161.484V224.379C1011.15 227.692 1008.47 230.379 1005.15 230.379H946.587C943.274 230.379 940.587 227.692 940.587 224.379V161.484C940.587 158.17 943.274 155.484 946.587 155.484H1005.15ZM1005.15 232.276C1008.47 232.276 1011.15 234.962 1011.15 238.276V301.171C1011.15 304.485 1008.47 307.171 1005.15 307.171H946.587C943.274 307.171 940.587 304.485 940.587 301.171V238.276C940.587 234.962 943.274 232.276 946.587 232.276H1005.15ZM1005.15 309.068C1008.47 309.068 1011.15 311.755 1011.15 315.068V377.965C1011.15 381.279 1008.47 383.965 1005.15 383.965H946.587C943.274 383.965 940.587 381.279 940.587 377.965V315.068C940.587 311.755 943.274 309.068 946.587 309.068H1005.15ZM1005.15 385.862C1008.47 385.862 1011.15 388.549 1011.15 391.862V454.757C1011.15 458.071 1008.47 460.757 1005.15 460.757H946.587C943.274 460.757 940.587 458.071 940.587 454.757V391.862C940.587 388.549 943.274 385.862 946.587 385.862H1005.15ZM1005.15 462.655C1008.47 462.655 1011.15 465.341 1011.15 468.655V531.551C1011.15 534.865 1008.47 537.551 1005.15 537.551H946.587C943.274 537.551 940.587 534.865 940.587 531.551V468.655C940.587 465.341 943.274 462.655 946.587 462.655H1005.15ZM1005.15 539.449C1008.47 539.449 1011.15 542.135 1011.15 545.449V608.344C1011.15 611.657 1008.47 614.344 1005.15 614.344H946.587C943.274 614.344 940.587 611.657 940.587 608.344V545.449C940.587 542.135 943.274 539.449 946.587 539.449H1005.15ZM1005.15 616.241C1008.47 616.241 1011.15 618.927 1011.15 622.241V685.138C1011.15 688.451 1008.47 691.138 1005.15 691.138H946.587C943.274 691.138 940.587 688.451 940.587 685.138V622.241C940.587 618.927 943.274 616.241 946.587 616.241H1005.15ZM1005.15 693.035C1008.47 693.035 1011.15 695.721 1011.15 699.035V761.93C1011.15 765.244 1008.47 767.93 1005.15 767.93H946.587C943.274 767.93 940.587 765.244 940.587 761.93V699.035C940.587 695.721 943.274 693.035 946.587 693.035H1005.15ZM1005.15 769.827C1008.47 769.827 1011.15 772.514 1011.15 775.827V838.724C1011.15 842.038 1008.47 844.724 1005.15 844.724H946.587C943.274 844.724 940.587 842.038 940.587 838.724V775.827C940.587 772.514 943.274 769.827 946.587 769.827H1005.15ZM1005.15 846.621C1008.47 846.621 1011.15 849.308 1011.15 852.621V915.516C1011.15 918.83 1008.47 921.516 1005.15 921.516H946.587C943.274 921.516 940.587 918.83 940.587 915.516V852.621C940.587 849.308 943.274 846.621 946.587 846.621H1005.15ZM1005.15 923.414C1008.47 923.414 1011.15 926.1 1011.15 929.414V992.308C1011.15 995.622 1008.47 998.308 1005.15 998.308H946.587C943.274 998.308 940.587 995.622 940.587 992.308V929.414C940.587 926.1 943.274 923.414 946.587 923.414H1005.15ZM868.235 992.308C868.235 995.622 870.921 998.308 874.235 998.308H932.8C936.113 998.308 938.8 995.622 938.8 992.308V929.414C938.8 926.1 936.113 923.414 932.8 923.414H874.235C870.921 923.414 868.235 926.1 868.235 929.414V992.308ZM868.235 915.516C868.235 918.83 870.921 921.516 874.235 921.516H932.8C936.113 921.516 938.8 918.83 938.8 915.516V852.621C938.8 849.308 936.113 846.621 932.8 846.621H874.235C870.921 846.621 868.235 849.308 868.235 852.621V915.516ZM868.235 838.724C868.235 842.038 870.921 844.724 874.235 844.724H932.8C936.113 844.724 938.8 842.038 938.8 838.724V775.827C938.8 772.514 936.113 769.827 932.8 769.827H874.235C870.921 769.827 868.235 772.514 868.235 775.827V838.724ZM868.235 761.93C868.235 765.244 870.921 767.93 874.235 767.93H932.8C936.113 767.93 938.8 765.244 938.8 761.93V699.035C938.8 695.721 936.113 693.035 932.8 693.035H874.235C870.921 693.035 868.235 695.721 868.235 699.035V761.93ZM868.235 685.138C868.235 688.451 870.921 691.138 874.235 691.138H932.8C936.113 691.138 938.8 688.451 938.8 685.138V622.241C938.8 618.927 936.113 616.241 932.8 616.241H874.235C870.921 616.241 868.235 618.927 868.235 622.241V685.138ZM868.235 608.344C868.235 611.657 870.921 614.344 874.235 614.344H932.8C936.113 614.344 938.8 611.657 938.8 608.344V545.449C938.8 542.135 936.113 539.449 932.8 539.449H874.235C870.921 539.449 868.235 542.135 868.235 545.449V608.344ZM868.235 531.551C868.235 534.865 870.921 537.551 874.235 537.551H932.8C936.113 537.551 938.8 534.865 938.8 531.551V468.655C938.8 465.341 936.113 462.655 932.8 462.655H874.235C870.921 462.655 868.235 465.341 868.235 468.655V531.551ZM868.235 454.757C868.235 458.071 870.921 460.757 874.235 460.757H932.8C936.113 460.757 938.8 458.071 938.8 454.757V391.862C938.8 388.549 936.113 385.862 932.8 385.862H874.235C870.921 385.862 868.235 388.549 868.235 391.862V454.757ZM868.235 377.965C868.235 381.279 870.921 383.965 874.235 383.965H932.8C936.113 383.965 938.8 381.279 938.8 377.965V315.068C938.8 311.755 936.113 309.068 932.8 309.068H874.235C870.921 309.068 868.235 311.755 868.235 315.068V377.965ZM868.235 301.171C868.235 304.485 870.921 307.171 874.235 307.171H932.8C936.113 307.171 938.8 304.485 938.8 301.171V238.276C938.8 234.962 936.113 232.276 932.8 232.276H874.235C870.921 232.276 868.235 234.962 868.235 238.276V301.171ZM868.235 224.379C868.235 227.692 870.921 230.379 874.235 230.379H932.8C936.113 230.379 938.8 227.692 938.8 224.379V161.484C938.8 158.17 936.113 155.484 932.8 155.484H874.235C870.921 155.484 868.235 158.17 868.235 161.484V224.379ZM868.235 147.586C868.235 150.9 870.921 153.586 874.235 153.586H932.8C936.113 153.586 938.8 150.9 938.8 147.586V84.6897C938.8 81.376 936.113 78.6897 932.8 78.6897H874.235C870.921 78.6897 868.235 81.376 868.235 84.6897V147.586ZM860.447 78.6897C863.761 78.6897 866.447 81.376 866.447 84.6897V147.586C866.447 150.9 863.761 153.586 860.447 153.586H801.881C798.567 153.586 795.881 150.9 795.881 147.586V84.6897C795.881 81.376 798.567 78.6897 801.881 78.6897H860.447ZM860.447 155.484C863.761 155.484 866.447 158.17 866.447 161.484V224.379C866.447 227.692 863.761 230.379 860.447 230.379H801.881C798.567 230.379 795.881 227.692 795.881 224.379V161.484C795.881 158.17 798.567 155.484 801.881 155.484H860.447ZM860.447 232.276C863.761 232.276 866.447 234.962 866.447 238.276V301.171C866.447 304.485 863.761 307.171 860.447 307.171H801.881C798.567 307.171 795.881 304.485 795.881 301.171V238.276C795.881 234.962 798.567 232.276 801.881 232.276H860.447ZM860.447 309.068C863.761 309.068 866.447 311.755 866.447 315.068V377.965C866.447 381.279 863.761 383.965 860.447 383.965H801.881C798.567 383.965 795.881 381.279 795.881 377.965V315.068C795.881 311.755 798.567 309.068 801.881 309.068H860.447ZM860.447 385.862C863.761 385.862 866.447 388.549 866.447 391.862V454.757C866.447 458.071 863.761 460.757 860.447 460.757H801.881C798.567 460.757 795.881 458.071 795.881 454.757V391.862C795.881 388.549 798.567 385.862 801.881 385.862H860.447ZM860.447 462.655C863.761 462.655 866.447 465.341 866.447 468.655V531.551C866.447 534.865 863.761 537.551 860.447 537.551H801.881C798.567 537.551 795.881 534.865 795.881 531.551V468.655C795.881 465.341 798.567 462.655 801.881 462.655H860.447ZM860.447 539.449C863.761 539.449 866.447 542.135 866.447 545.449V608.344C866.447 611.657 863.761 614.344 860.447 614.344H801.881C798.567 614.344 795.881 611.657 795.881 608.344V545.449C795.881 542.135 798.567 539.449 801.881 539.449H860.447ZM860.447 616.241C863.761 616.241 866.447 618.927 866.447 622.241V685.138C866.447 688.451 863.761 691.138 860.447 691.138H801.881C798.567 691.138 795.881 688.451 795.881 685.138V622.241C795.881 618.927 798.567 616.241 801.881 616.241H860.447ZM860.447 693.035C863.761 693.035 866.447 695.721 866.447 699.035V761.93C866.447 765.244 863.761 767.93 860.447 767.93H801.881C798.567 767.93 795.881 765.244 795.881 761.93V699.035C795.881 695.721 798.567 693.035 801.881 693.035H860.447ZM860.447 769.827C863.761 769.827 866.447 772.514 866.447 775.827V838.724C866.447 842.038 863.761 844.724 860.447 844.724H801.881C798.567 844.724 795.881 842.038 795.881 838.724V775.827C795.881 772.514 798.567 769.827 801.881 769.827H860.447ZM860.447 846.621C863.761 846.621 866.447 849.308 866.447 852.621V915.516C866.447 918.83 863.761 921.516 860.447 921.516H801.881C798.567 921.516 795.881 918.83 795.881 915.516V852.621C795.881 849.308 798.567 846.621 801.881 846.621H860.447ZM860.447 923.414C863.761 923.414 866.447 926.1 866.447 929.414V992.308C866.447 995.622 863.761 998.308 860.447 998.308H801.881C798.567 998.308 795.881 995.622 795.881 992.308V929.414C795.881 926.1 798.567 923.414 801.881 923.414H860.447ZM723.529 992.308C723.529 995.622 726.215 998.308 729.529 998.308H788.093C791.407 998.308 794.093 995.622 794.093 992.308V929.414C794.093 926.1 791.407 923.414 788.093 923.414H729.529C726.215 923.414 723.529 926.1 723.529 929.414V992.308ZM723.529 915.516C723.529 918.83 726.215 921.516 729.529 921.516H788.093C791.407 921.516 794.093 918.83 794.093 915.516V852.621C794.093 849.308 791.407 846.621 788.093 846.621H729.529C726.215 846.621 723.529 849.308 723.529 852.621V915.516ZM723.529 838.724C723.529 842.038 726.215 844.724 729.529 844.724H788.093C791.407 844.724 794.093 842.038 794.093 838.724V775.827C794.093 772.514 791.407 769.827 788.093 769.827L729.529 769.827C726.215 769.827 723.529 772.514 723.529 775.827V838.724ZM723.529 761.93C723.529 765.244 726.215 767.93 729.529 767.93L788.093 767.93C791.407 767.93 794.093 765.244 794.093 761.93V699.035C794.093 695.721 791.407 693.035 788.093 693.035L729.529 693.035C726.215 693.035 723.529 695.721 723.529 699.035V761.93ZM723.529 685.138C723.529 688.451 726.215 691.138 729.529 691.138L788.093 691.138C791.407 691.138 794.093 688.451 794.093 685.138V622.241C794.093 618.927 791.407 616.241 788.093 616.241L729.529 616.241C726.215 616.241 723.529 618.927 723.529 622.241V685.138ZM723.529 608.344C723.529 611.657 726.215 614.344 729.529 614.344L788.093 614.344C791.407 614.344 794.093 611.657 794.093 608.344V545.449C794.093 542.135 791.407 539.449 788.093 539.449H729.529C726.215 539.449 723.529 542.135 723.529 545.449V608.344ZM723.529 531.551C723.529 534.865 726.215 537.551 729.529 537.551H788.093C791.407 537.551 794.093 534.865 794.093 531.551V468.655C794.093 465.341 791.407 462.655 788.093 462.655H729.529C726.215 462.655 723.529 465.341 723.529 468.655V531.551ZM723.529 454.757C723.529 458.071 726.215 460.757 729.529 460.757H788.093C791.407 460.757 794.093 458.071 794.093 454.757V391.862C794.093 388.549 791.407 385.862 788.093 385.862H729.529C726.215 385.862 723.529 388.549 723.529 391.862V454.757ZM723.529 377.965C723.529 381.279 726.215 383.965 729.529 383.965H788.093C791.407 383.965 794.093 381.279 794.093 377.965V315.068C794.093 311.755 791.407 309.068 788.093 309.068H729.529C726.215 309.068 723.529 311.755 723.529 315.068V377.965ZM723.529 301.171C723.529 304.485 726.215 307.171 729.529 307.171H788.093C791.407 307.171 794.093 304.485 794.093 301.171V238.276C794.093 234.962 791.407 232.276 788.093 232.276H729.529C726.215 232.276 723.529 234.962 723.529 238.276V301.171ZM723.529 224.379C723.529 227.692 726.215 230.379 729.529 230.379H788.093C791.407 230.379 794.093 227.692 794.093 224.379V161.484C794.093 158.17 791.407 155.484 788.093 155.484H729.529C726.215 155.484 723.529 158.17 723.529 161.484V224.379ZM723.529 147.586C723.529 150.9 726.215 153.586 729.529 153.586H788.093C791.407 153.586 794.093 150.9 794.093 147.586V84.6897C794.093 81.376 791.407 78.6897 788.093 78.6897H729.529C726.215 78.6897 723.529 81.376 723.529 84.6897V147.586ZM715.741 78.6897C719.055 78.6897 721.741 81.376 721.741 84.6897V147.586C721.741 150.9 719.055 153.586 715.741 153.586H657.175C653.861 153.586 651.175 150.9 651.175 147.586V84.6897C651.175 81.376 653.861 78.6897 657.175 78.6897H715.741ZM715.741 155.484C719.055 155.484 721.741 158.17 721.741 161.484V224.379C721.741 227.692 719.055 230.379 715.741 230.379H657.175C653.861 230.379 651.175 227.692 651.175 224.379V161.484C651.175 158.17 653.861 155.484 657.175 155.484H715.741ZM715.741 232.276C719.055 232.276 721.741 234.962 721.741 238.276V301.171C721.741 304.485 719.055 307.171 715.741 307.171H657.175C653.861 307.171 651.175 304.485 651.175 301.171V238.276C651.175 234.962 653.861 232.276 657.175 232.276H715.741ZM715.741 309.068C719.055 309.068 721.741 311.755 721.741 315.068V377.965C721.741 381.279 719.055 383.965 715.741 383.965H657.175C653.861 383.965 651.175 381.279 651.175 377.965V315.068C651.175 311.755 653.861 309.068 657.175 309.068H715.741ZM715.741 385.862C719.055 385.862 721.741 388.549 721.741 391.862V454.757C721.741 458.071 719.055 460.757 715.741 460.757H657.175C653.861 460.757 651.175 458.071 651.175 454.757V391.862C651.175 388.549 653.861 385.862 657.175 385.862H715.741ZM715.741 462.655C719.055 462.655 721.741 465.341 721.741 468.655V531.551C721.741 534.865 719.055 537.551 715.741 537.551H657.175C653.861 537.551 651.175 534.865 651.175 531.551V468.655C651.175 465.341 653.861 462.655 657.175 462.655H715.741ZM715.741 539.449C719.055 539.449 721.741 542.135 721.741 545.449V608.344C721.741 611.657 719.055 614.344 715.741 614.344H657.175C653.861 614.344 651.175 611.657 651.175 608.344V545.449C651.175 542.135 653.861 539.449 657.175 539.449H715.741ZM715.741 616.241C719.055 616.241 721.741 618.927 721.741 622.241V685.138C721.741 688.451 719.055 691.138 715.741 691.138H657.175C653.861 691.138 651.175 688.451 651.175 685.138V622.241C651.175 618.927 653.861 616.241 657.175 616.241H715.741ZM715.741 693.035C719.055 693.035 721.741 695.721 721.741 699.035V761.93C721.741 765.244 719.055 767.93 715.741 767.93H657.175C653.861 767.93 651.175 765.244 651.175 761.93V699.035C651.175 695.721 653.861 693.035 657.175 693.035H715.741ZM715.741 769.827C719.055 769.827 721.741 772.514 721.741 775.827V838.724C721.741 842.038 719.055 844.724 715.741 844.724H657.175C653.861 844.724 651.175 842.038 651.175 838.724V775.827C651.175 772.514 653.861 769.827 657.175 769.827H715.741ZM715.741 846.621C719.055 846.621 721.741 849.308 721.741 852.621V915.516C721.741 918.83 719.055 921.516 715.741 921.516H657.175C653.861 921.516 651.175 918.83 651.175 915.516V852.621C651.175 849.308 653.861 846.621 657.175 846.621H715.741ZM715.741 923.414C719.055 923.414 721.741 926.1 721.741 929.414V992.308C721.741 995.622 719.055 998.308 715.741 998.308H657.175C653.861 998.308 651.175 995.622 651.175 992.308V929.414C651.175 926.1 653.861 923.414 657.175 923.414H715.741ZM578.825 992.308C578.825 995.622 581.511 998.308 584.825 998.308L643.387 998.308C646.701 998.308 649.387 995.622 649.387 992.308V929.414C649.387 926.1 646.701 923.414 643.387 923.414H584.825C581.511 923.414 578.825 926.1 578.825 929.414V992.308ZM578.825 915.516C578.825 918.83 581.511 921.516 584.825 921.516H643.387C646.701 921.516 649.387 918.83 649.387 915.516V852.621C649.387 849.308 646.701 846.621 643.387 846.621H584.825C581.511 846.621 578.825 849.308 578.825 852.621V915.516ZM578.825 838.724C578.825 842.038 581.511 844.724 584.825 844.724H643.387C646.701 844.724 649.387 842.038 649.387 838.724V775.827C649.387 772.514 646.701 769.827 643.387 769.827H584.825C581.511 769.827 578.825 772.514 578.825 775.827V838.724ZM578.825 761.93C578.825 765.244 581.511 767.93 584.825 767.93H643.387C646.701 767.93 649.387 765.244 649.387 761.93V699.035C649.387 695.721 646.701 693.035 643.387 693.035H584.825C581.511 693.035 578.825 695.721 578.825 699.035V761.93ZM578.825 685.138C578.825 688.451 581.511 691.138 584.825 691.138H643.387C646.701 691.138 649.387 688.451 649.387 685.138V622.241C649.387 618.927 646.701 616.241 643.387 616.241H584.825C581.511 616.241 578.825 618.927 578.825 622.241V685.138ZM578.825 608.344C578.825 611.657 581.511 614.344 584.825 614.344H643.387C646.701 614.344 649.387 611.657 649.387 608.344V545.449C649.387 542.135 646.701 539.449 643.387 539.449H584.825C581.511 539.449 578.825 542.135 578.825 545.449V608.344ZM578.825 531.551C578.825 534.865 581.511 537.551 584.825 537.551H643.387C646.701 537.551 649.387 534.865 649.387 531.551V468.655C649.387 465.341 646.701 462.655 643.387 462.655H584.825C581.511 462.655 578.825 465.341 578.825 468.655V531.551ZM578.825 454.757C578.825 458.071 581.511 460.757 584.825 460.757H643.387C646.701 460.757 649.387 458.071 649.387 454.757V391.862C649.387 388.549 646.701 385.862 643.387 385.862H584.825C581.511 385.862 578.825 388.549 578.825 391.862V454.757ZM578.825 377.965C578.825 381.279 581.511 383.965 584.825 383.965H643.387C646.701 383.965 649.387 381.279 649.387 377.965V315.068C649.387 311.755 646.701 309.068 643.387 309.068H584.825C581.511 309.068 578.825 311.755 578.825 315.068V377.965ZM578.825 301.171C578.825 304.485 581.511 307.171 584.825 307.171H643.387C646.701 307.171 649.387 304.485 649.387 301.171V238.276C649.387 234.962 646.701 232.276 643.387 232.276H584.825C581.511 232.276 578.825 234.962 578.825 238.276V301.171ZM578.825 224.379C578.825 227.692 581.511 230.379 584.825 230.379H643.387C646.701 230.379 649.387 227.692 649.387 224.379V161.484C649.387 158.17 646.701 155.484 643.387 155.484H584.825C581.511 155.484 578.825 158.17 578.825 161.484V224.379ZM578.825 147.586C578.825 150.9 581.511 153.586 584.825 153.586H643.387C646.701 153.586 649.387 150.9 649.387 147.586V84.6897C649.387 81.376 646.701 78.6897 643.387 78.6897H584.825C581.511 78.6897 578.825 81.376 578.825 84.6897V147.586ZM571.037 78.6897C574.351 78.6897 577.037 81.376 577.037 84.6897V147.586C577.037 150.9 574.351 153.586 571.037 153.586L512.471 153.586C509.157 153.586 506.471 150.9 506.471 147.586V84.6897C506.471 81.376 509.157 78.6897 512.471 78.6897L571.037 78.6897ZM571.037 155.484C574.351 155.484 577.037 158.17 577.037 161.484V224.379C577.037 227.692 574.351 230.379 571.037 230.379L512.471 230.379C509.157 230.379 506.471 227.692 506.471 224.379V161.484C506.471 158.17 509.157 155.484 512.471 155.484L571.037 155.484ZM571.037 232.276C574.351 232.276 577.037 234.962 577.037 238.276V301.171C577.037 304.485 574.351 307.171 571.037 307.171L512.471 307.171C509.157 307.171 506.471 304.485 506.471 301.171V238.276C506.471 234.962 509.157 232.276 512.471 232.276L571.037 232.276ZM571.037 309.068C574.351 309.068 577.037 311.755 577.037 315.068V377.965C577.037 381.279 574.351 383.965 571.037 383.965L512.471 383.965C509.157 383.965 506.471 381.279 506.471 377.965V315.068C506.471 311.755 509.157 309.068 512.471 309.068L571.037 309.068ZM571.037 385.862C574.351 385.862 577.037 388.549 577.037 391.862V454.757C577.037 458.071 574.351 460.757 571.037 460.757L512.471 460.757C509.157 460.757 506.471 458.071 506.471 454.757V391.862C506.471 388.549 509.157 385.862 512.471 385.862L571.037 385.862ZM571.037 462.655C574.351 462.655 577.037 465.341 577.037 468.655V531.551C577.037 534.865 574.351 537.551 571.037 537.551L512.471 537.551C509.157 537.551 506.471 534.865 506.471 531.551V468.655C506.471 465.341 509.157 462.655 512.471 462.655L571.037 462.655ZM571.037 539.449C574.351 539.449 577.037 542.135 577.037 545.449V608.344C577.037 611.657 574.351 614.344 571.037 614.344H512.471C509.157 614.344 506.471 611.657 506.471 608.344V545.449C506.471 542.135 509.157 539.449 512.471 539.449L571.037 539.449ZM571.037 616.241C574.351 616.241 577.037 618.927 577.037 622.241V685.138C577.037 688.451 574.351 691.138 571.037 691.138H512.471C509.157 691.138 506.471 688.451 506.471 685.138V622.241C506.471 618.927 509.157 616.241 512.471 616.241H571.037ZM571.037 693.035C574.351 693.035 577.037 695.721 577.037 699.035V761.93C577.037 765.244 574.351 767.93 571.037 767.93H512.471C509.157 767.93 506.471 765.244 506.471 761.93V699.035C506.471 695.721 509.157 693.035 512.471 693.035H571.037ZM571.037 769.827C574.351 769.827 577.037 772.514 577.037 775.827V838.724C577.037 842.038 574.351 844.724 571.037 844.724H512.471C509.157 844.724 506.471 842.038 506.471 838.724V775.827C506.471 772.514 509.157 769.827 512.471 769.827H571.037ZM571.037 846.621C574.351 846.621 577.037 849.308 577.037 852.621V915.516C577.037 918.83 574.351 921.516 571.037 921.516H512.471C509.157 921.516 506.471 918.83 506.471 915.516V852.621C506.471 849.308 509.157 846.621 512.471 846.621H571.037ZM571.037 923.414C574.351 923.414 577.037 926.1 577.037 929.414V992.308C577.037 995.622 574.351 998.308 571.037 998.308H512.471C509.157 998.308 506.471 995.622 506.471 992.308V929.414C506.471 926.1 509.157 923.414 512.471 923.414H571.037ZM434.119 992.308C434.119 995.622 436.805 998.308 440.119 998.308H498.683C501.997 998.308 504.683 995.622 504.683 992.308V929.414C504.683 926.1 501.997 923.414 498.683 923.414H440.119C436.805 923.414 434.119 926.1 434.119 929.414V992.308ZM434.119 915.516C434.119 918.83 436.805 921.516 440.119 921.516H498.683C501.997 921.516 504.683 918.83 504.683 915.516V852.621C504.683 849.308 501.997 846.621 498.683 846.621H440.119C436.805 846.621 434.119 849.308 434.119 852.621V915.516ZM434.119 838.724C434.119 842.038 436.805 844.724 440.119 844.724H498.683C501.997 844.724 504.683 842.038 504.683 838.724V775.827C504.683 772.514 501.997 769.827 498.683 769.827H440.119C436.805 769.827 434.119 772.514 434.119 775.827V838.724ZM434.119 761.93C434.119 765.244 436.805 767.93 440.119 767.93H498.683C501.997 767.93 504.683 765.244 504.683 761.93V699.035C504.683 695.721 501.997 693.035 498.683 693.035H440.119C436.805 693.035 434.119 695.721 434.119 699.035V761.93ZM434.119 685.138C434.119 688.451 436.805 691.138 440.119 691.138H498.683C501.997 691.138 504.683 688.451 504.683 685.138V622.241C504.683 618.927 501.997 616.241 498.683 616.241H440.119C436.805 616.241 434.119 618.927 434.119 622.241V685.138ZM434.119 608.344C434.119 611.657 436.805 614.344 440.119 614.344H498.683C501.997 614.344 504.683 611.657 504.683 608.344V545.449C504.683 542.135 501.997 539.449 498.683 539.449H440.119C436.805 539.449 434.119 542.135 434.119 545.449V608.344ZM434.119 531.551C434.119 534.865 436.805 537.551 440.119 537.551H498.683C501.997 537.551 504.683 534.865 504.683 531.551V468.655C504.683 465.341 501.997 462.655 498.683 462.655H440.119C436.805 462.655 434.119 465.341 434.119 468.655V531.551ZM434.119 454.757C434.119 458.071 436.805 460.757 440.119 460.757H498.683C501.997 460.757 504.683 458.071 504.683 454.757V391.862C504.683 388.549 501.997 385.862 498.683 385.862H440.119C436.805 385.862 434.119 388.549 434.119 391.862V454.757ZM434.119 377.965C434.119 381.279 436.805 383.965 440.119 383.965H498.683C501.997 383.965 504.683 381.279 504.683 377.965V315.068C504.683 311.755 501.997 309.068 498.683 309.068H440.119C436.805 309.068 434.119 311.755 434.119 315.068V377.965ZM434.119 301.171C434.119 304.485 436.805 307.171 440.119 307.171H498.683C501.997 307.171 504.683 304.485 504.683 301.171V238.276C504.683 234.962 501.997 232.276 498.683 232.276H440.119C436.805 232.276 434.119 234.962 434.119 238.276V301.171ZM434.119 224.379C434.119 227.692 436.805 230.379 440.119 230.379H498.683C501.997 230.379 504.683 227.692 504.683 224.379V161.484C504.683 158.17 501.997 155.484 498.683 155.484H440.119C436.805 155.484 434.119 158.17 434.119 161.484V224.379ZM434.119 147.586C434.119 150.9 436.805 153.586 440.119 153.586H498.683C501.997 153.586 504.683 150.9 504.683 147.586V84.6897C504.683 81.376 501.997 78.6897 498.683 78.6897H440.119C436.805 78.6897 434.119 81.376 434.119 84.6897V147.586ZM426.331 78.6897C429.645 78.6897 432.331 81.376 432.331 84.6897V147.586C432.331 150.9 429.645 153.586 426.331 153.586H367.766C364.453 153.586 361.766 150.9 361.766 147.586V84.6897C361.766 81.376 364.453 78.6897 367.766 78.6897H426.331ZM426.331 155.484C429.645 155.484 432.331 158.17 432.331 161.484V224.379C432.331 227.692 429.645 230.379 426.331 230.379H367.766C364.453 230.379 361.766 227.692 361.766 224.379V161.484C361.766 158.17 364.453 155.484 367.766 155.484H426.331ZM426.331 232.276C429.645 232.276 432.331 234.962 432.331 238.276V301.171C432.331 304.485 429.645 307.171 426.331 307.171H367.766C364.453 307.171 361.766 304.485 361.766 301.171V238.276C361.766 234.962 364.453 232.276 367.766 232.276H426.331ZM426.331 309.068C429.645 309.068 432.331 311.755 432.331 315.068V377.965C432.331 381.279 429.645 383.965 426.331 383.965H367.766C364.453 383.965 361.766 381.279 361.766 377.965V315.068C361.766 311.755 364.453 309.068 367.766 309.068H426.331ZM426.331 385.862C429.645 385.862 432.331 388.549 432.331 391.862V454.757C432.331 458.071 429.645 460.757 426.331 460.757H367.766C364.453 460.757 361.766 458.071 361.766 454.757V391.862C361.766 388.549 364.453 385.862 367.766 385.862H426.331ZM426.331 462.655C429.645 462.655 432.331 465.341 432.331 468.655V531.551C432.331 534.865 429.645 537.551 426.331 537.551H367.766C364.453 537.551 361.766 534.865 361.766 531.551V468.655C361.766 465.341 364.453 462.655 367.766 462.655H426.331ZM426.331 539.449C429.645 539.449 432.331 542.135 432.331 545.449V608.344C432.331 611.657 429.645 614.344 426.331 614.344H367.766C364.453 614.344 361.766 611.657 361.766 608.344V545.449C361.766 542.135 364.453 539.449 367.766 539.449H426.331ZM426.331 616.241C429.645 616.241 432.331 618.927 432.331 622.241V685.138C432.331 688.451 429.645 691.138 426.331 691.138H367.766C364.453 691.138 361.766 688.451 361.766 685.138V622.241C361.766 618.927 364.453 616.241 367.766 616.241H426.331ZM426.331 693.035C429.645 693.035 432.331 695.721 432.331 699.035V761.93C432.331 765.244 429.645 767.93 426.331 767.93H367.766C364.453 767.93 361.766 765.244 361.766 761.93V699.035C361.766 695.721 364.453 693.035 367.766 693.035H426.331ZM426.331 769.827C429.645 769.827 432.331 772.514 432.331 775.827V838.724C432.331 842.038 429.645 844.724 426.331 844.724H367.766C364.453 844.724 361.766 842.038 361.766 838.724V775.827C361.766 772.514 364.453 769.827 367.766 769.827H426.331ZM426.331 846.621C429.645 846.621 432.331 849.308 432.331 852.621V915.516C432.331 918.83 429.645 921.516 426.331 921.516H367.766C364.453 921.516 361.766 918.83 361.766 915.516V852.621C361.766 849.308 364.453 846.621 367.766 846.621H426.331ZM426.331 923.414C429.645 923.414 432.331 926.1 432.331 929.414V992.308C432.331 995.622 429.645 998.308 426.331 998.308H367.766C364.453 998.308 361.766 995.622 361.766 992.308V929.414C361.766 926.1 364.453 923.414 367.766 923.414H426.331ZM289.413 992.308C289.413 995.622 292.099 998.308 295.413 998.308H353.979C357.292 998.308 359.979 995.622 359.979 992.308V929.414C359.979 926.1 357.292 923.414 353.979 923.414H295.413C292.099 923.414 289.413 926.1 289.413 929.414V992.308ZM289.413 915.516C289.413 918.83 292.099 921.516 295.413 921.516H353.979C357.292 921.516 359.979 918.83 359.979 915.516V852.621C359.979 849.308 357.292 846.621 353.979 846.621H295.413C292.099 846.621 289.413 849.308 289.413 852.621V915.516ZM289.413 838.724C289.413 842.038 292.099 844.724 295.413 844.724H353.979C357.292 844.724 359.979 842.038 359.979 838.724V775.827C359.979 772.514 357.292 769.827 353.979 769.827H295.413C292.099 769.827 289.413 772.514 289.413 775.827V838.724ZM289.413 761.93C289.413 765.244 292.099 767.93 295.413 767.93H353.979C357.292 767.93 359.979 765.244 359.979 761.93V699.035C359.979 695.721 357.292 693.035 353.979 693.035H295.413C292.099 693.035 289.413 695.721 289.413 699.035V761.93ZM289.413 685.138C289.413 688.451 292.099 691.138 295.413 691.138H353.979C357.292 691.138 359.979 688.451 359.979 685.138V622.241C359.979 618.927 357.292 616.241 353.979 616.241H295.413C292.099 616.241 289.413 618.927 289.413 622.241V685.138ZM289.413 608.344C289.413 611.657 292.099 614.344 295.413 614.344H353.979C357.292 614.344 359.979 611.657 359.979 608.344V545.449C359.979 542.135 357.292 539.449 353.979 539.449H295.413C292.099 539.449 289.413 542.135 289.413 545.449V608.344ZM289.413 531.551C289.413 534.865 292.099 537.551 295.413 537.551H353.979C357.292 537.551 359.979 534.865 359.979 531.551V468.655C359.979 465.341 357.292 462.655 353.979 462.655H295.413C292.099 462.655 289.413 465.341 289.413 468.655V531.551ZM289.413 454.757C289.413 458.071 292.099 460.757 295.413 460.757H353.979C357.292 460.757 359.979 458.071 359.979 454.757V391.862C359.979 388.549 357.292 385.862 353.979 385.862H295.413C292.099 385.862 289.413 388.549 289.413 391.862V454.757ZM289.413 377.965C289.413 381.279 292.099 383.965 295.413 383.965H353.979C357.292 383.965 359.979 381.279 359.979 377.965V315.068C359.979 311.755 357.292 309.068 353.979 309.068H295.413C292.099 309.068 289.413 311.755 289.413 315.068V377.965ZM289.413 301.171C289.413 304.485 292.099 307.171 295.413 307.171H353.979C357.292 307.171 359.979 304.485 359.979 301.171V238.276C359.979 234.962 357.292 232.276 353.979 232.276H295.413C292.099 232.276 289.413 234.962 289.413 238.276V301.171ZM289.413 224.379C289.413 227.692 292.099 230.379 295.413 230.379H353.979C357.292 230.379 359.979 227.692 359.979 224.379V161.484C359.979 158.17 357.292 155.484 353.979 155.484H295.413C292.099 155.484 289.413 158.17 289.413 161.484V224.379ZM289.413 147.586C289.413 150.9 292.099 153.586 295.413 153.586H353.979C357.292 153.586 359.979 150.9 359.979 147.586V84.6897C359.979 81.376 357.292 78.6897 353.979 78.6897H295.413C292.099 78.6897 289.413 81.376 289.413 84.6897V147.586ZM281.625 78.6897C284.938 78.6897 287.625 81.376 287.625 84.6897V147.586C287.625 150.9 284.938 153.586 281.625 153.586H223.06C219.747 153.586 217.06 150.9 217.06 147.586V84.6897C217.06 81.376 219.747 78.6897 223.06 78.6897H281.625ZM281.625 155.484C284.938 155.484 287.625 158.17 287.625 161.484V224.379C287.625 227.692 284.938 230.379 281.625 230.379H223.06C219.747 230.379 217.06 227.692 217.06 224.379V161.484C217.06 158.17 219.747 155.484 223.06 155.484H281.625ZM281.625 232.276C284.938 232.276 287.625 234.962 287.625 238.276V301.171C287.625 304.485 284.938 307.171 281.625 307.171H223.06C219.747 307.171 217.06 304.485 217.06 301.171V238.276C217.06 234.962 219.747 232.276 223.06 232.276H281.625ZM281.625 309.068C284.938 309.068 287.625 311.755 287.625 315.068V377.965C287.625 381.279 284.938 383.965 281.625 383.965H223.06C219.747 383.965 217.06 381.279 217.06 377.965V315.068C217.06 311.755 219.747 309.068 223.06 309.068H281.625ZM281.625 385.862C284.938 385.862 287.625 388.549 287.625 391.862V454.757C287.625 458.071 284.938 460.757 281.625 460.757H223.06C219.747 460.757 217.06 458.071 217.06 454.757V391.862C217.06 388.549 219.747 385.862 223.06 385.862H281.625ZM281.625 462.655C284.938 462.655 287.625 465.341 287.625 468.655V531.551C287.625 534.865 284.938 537.551 281.625 537.551H223.06C219.747 537.551 217.06 534.865 217.06 531.551V468.655C217.06 465.341 219.747 462.655 223.06 462.655H281.625ZM281.625 539.449C284.938 539.449 287.625 542.135 287.625 545.449V608.344C287.625 611.657 284.938 614.344 281.625 614.344H223.06C219.747 614.344 217.06 611.657 217.06 608.344V545.449C217.06 542.135 219.747 539.449 223.06 539.449H281.625ZM281.625 616.241C284.938 616.241 287.625 618.927 287.625 622.241V685.138C287.625 688.451 284.938 691.138 281.625 691.138H223.06C219.747 691.138 217.06 688.451 217.06 685.138V622.241C217.06 618.927 219.747 616.241 223.06 616.241H281.625ZM281.625 693.035C284.938 693.035 287.625 695.721 287.625 699.035V761.93C287.625 765.244 284.938 767.93 281.625 767.93H223.06C219.747 767.93 217.06 765.244 217.06 761.93V699.035C217.06 695.721 219.747 693.035 223.06 693.035H281.625ZM281.625 769.827C284.938 769.827 287.625 772.514 287.625 775.827V838.724C287.625 842.038 284.938 844.724 281.625 844.724H223.06C219.747 844.724 217.06 842.038 217.06 838.724V775.827C217.06 772.514 219.747 769.827 223.06 769.827H281.625ZM281.625 846.621C284.938 846.621 287.625 849.308 287.625 852.621V915.516C287.625 918.83 284.938 921.516 281.625 921.516H223.06C219.747 921.516 217.06 918.83 217.06 915.516V852.621C217.06 849.308 219.747 846.621 223.06 846.621H281.625ZM281.625 923.414C284.938 923.414 287.625 926.1 287.625 929.414V992.308C287.625 995.622 284.938 998.308 281.625 998.308H223.06C219.747 998.308 217.06 995.622 217.06 992.308V929.414C217.06 926.1 219.747 923.414 223.06 923.414H281.625ZM144.706 992.308C144.706 995.622 147.393 998.308 150.706 998.308H209.273C212.586 998.308 215.273 995.622 215.273 992.308V929.414C215.273 926.1 212.586 923.414 209.273 923.414H150.706C147.393 923.414 144.706 926.1 144.706 929.414V992.308ZM144.706 915.516C144.706 918.83 147.393 921.516 150.706 921.516H209.273C212.586 921.516 215.273 918.83 215.273 915.516V852.621C215.273 849.308 212.586 846.621 209.273 846.621H150.706C147.393 846.621 144.706 849.308 144.706 852.621V915.516ZM144.706 838.724C144.706 842.038 147.393 844.724 150.706 844.724H209.273C212.586 844.724 215.273 842.038 215.273 838.724V775.827C215.273 772.514 212.586 769.827 209.273 769.827H150.706C147.393 769.827 144.706 772.514 144.706 775.827V838.724ZM144.706 761.93C144.706 765.244 147.393 767.93 150.706 767.93H209.273C212.586 767.93 215.273 765.244 215.273 761.93V699.035C215.273 695.721 212.586 693.035 209.273 693.035H150.706C147.393 693.035 144.706 695.721 144.706 699.035V761.93ZM144.706 685.138C144.706 688.451 147.393 691.138 150.706 691.138H209.273C212.586 691.138 215.273 688.451 215.273 685.138V622.241C215.273 618.927 212.586 616.241 209.273 616.241H150.706C147.393 616.241 144.706 618.927 144.706 622.241V685.138ZM144.706 608.344C144.706 611.657 147.393 614.344 150.706 614.344H209.273C212.586 614.344 215.273 611.657 215.273 608.344V545.449C215.273 542.135 212.586 539.449 209.273 539.449H150.706C147.393 539.449 144.706 542.135 144.706 545.449V608.344ZM144.706 531.551C144.706 534.865 147.393 537.551 150.706 537.551H209.273C212.586 537.551 215.273 534.865 215.273 531.551V468.655C215.273 465.341 212.586 462.655 209.273 462.655H150.706C147.393 462.655 144.706 465.341 144.706 468.655V531.551ZM144.706 454.757C144.706 458.071 147.393 460.757 150.706 460.757H209.273C212.586 460.757 215.273 458.071 215.273 454.757V391.862C215.273 388.549 212.586 385.862 209.273 385.862H150.706C147.393 385.862 144.706 388.549 144.706 391.862V454.757ZM144.706 377.965C144.706 381.279 147.393 383.965 150.706 383.965H209.273C212.586 383.965 215.273 381.279 215.273 377.965V315.068C215.273 311.755 212.586 309.068 209.273 309.068H150.706C147.393 309.068 144.706 311.755 144.706 315.068V377.965ZM144.706 301.171C144.706 304.485 147.393 307.171 150.706 307.171H209.273C212.586 307.171 215.273 304.485 215.273 301.171V238.276C215.273 234.962 212.586 232.276 209.273 232.276H150.706C147.393 232.276 144.706 234.962 144.706 238.276V301.171ZM144.706 224.379C144.706 227.692 147.393 230.379 150.706 230.379H209.273C212.586 230.379 215.273 227.692 215.273 224.379V161.484C215.273 158.17 212.586 155.484 209.273 155.484H150.706C147.393 155.484 144.706 158.17 144.706 161.484V224.379ZM144.706 147.586C144.706 150.9 147.393 153.586 150.706 153.586H209.273C212.586 153.586 215.273 150.9 215.273 147.586V84.6897C215.273 81.376 212.586 78.6897 209.273 78.6897H150.706C147.393 78.6897 144.706 81.376 144.706 84.6897V147.586ZM136.919 78.6897C140.232 78.6897 142.919 81.376 142.919 84.6897V147.586C142.919 150.9 140.232 153.586 136.919 153.586H78.3487C75.035 153.586 72.3487 150.9 72.3487 147.586V84.6897C72.3487 81.376 75.035 78.6897 78.3487 78.6897H136.919ZM136.919 155.484C140.232 155.484 142.919 158.17 142.919 161.484V224.379C142.919 227.692 140.232 230.379 136.919 230.379H78.3487C75.035 230.379 72.3487 227.692 72.3487 224.379V161.484C72.3487 158.17 75.035 155.484 78.3487 155.484H136.919ZM136.919 232.276C140.232 232.276 142.919 234.962 142.919 238.276V301.171C142.919 304.485 140.232 307.171 136.919 307.171H78.3487C75.035 307.171 72.3487 304.485 72.3487 301.171V238.276C72.3487 234.962 75.035 232.276 78.3487 232.276H136.919ZM136.919 309.068C140.232 309.068 142.919 311.755 142.919 315.068V377.965C142.919 381.279 140.232 383.965 136.919 383.965H78.3487C75.035 383.965 72.3487 381.279 72.3487 377.965V315.068C72.3487 311.755 75.035 309.068 78.3487 309.068H136.919ZM136.919 385.862C140.232 385.862 142.919 388.549 142.919 391.862V454.757C142.919 458.071 140.232 460.757 136.919 460.757H78.3487C75.035 460.757 72.3487 458.071 72.3487 454.757V391.862C72.3487 388.549 75.035 385.862 78.3487 385.862H136.919ZM136.919 462.655C140.232 462.655 142.919 465.341 142.919 468.655V531.551C142.919 534.865 140.232 537.551 136.919 537.551H78.3487C75.035 537.551 72.3487 534.865 72.3487 531.551V468.655C72.3487 465.341 75.035 462.655 78.3487 462.655H136.919ZM136.919 539.449C140.232 539.449 142.919 542.135 142.919 545.449V608.344C142.919 611.657 140.232 614.344 136.919 614.344H78.3487C75.035 614.344 72.3487 611.657 72.3487 608.344V545.449C72.3487 542.135 75.035 539.449 78.3487 539.449H136.919ZM136.919 616.241C140.232 616.241 142.919 618.927 142.919 622.241V685.138C142.919 688.451 140.232 691.138 136.919 691.138H78.3487C75.035 691.138 72.3487 688.451 72.3487 685.138V622.241C72.3487 618.927 75.035 616.241 78.3487 616.241H136.919ZM136.919 693.035C140.232 693.035 142.919 695.721 142.919 699.035V761.93C142.919 765.244 140.232 767.93 136.919 767.93H78.3487C75.035 767.93 72.3487 765.244 72.3487 761.93V699.035C72.3487 695.721 75.035 693.035 78.3487 693.035H136.919ZM136.919 769.827C140.232 769.827 142.919 772.514 142.919 775.827V838.724C142.919 842.038 140.232 844.724 136.919 844.724H78.3487C75.035 844.724 72.3487 842.038 72.3487 838.724V775.827C72.3487 772.514 75.035 769.827 78.3487 769.827H136.919ZM136.919 846.621C140.232 846.621 142.919 849.308 142.919 852.621V915.516C142.919 918.83 140.232 921.516 136.919 921.516H78.3487C75.035 921.516 72.3487 918.83 72.3487 915.516V852.621C72.3487 849.308 75.035 846.621 78.3487 846.621H136.919ZM136.919 923.414C140.232 923.414 142.919 926.1 142.919 929.414V992.308C142.919 995.622 140.232 998.308 136.919 998.308H78.3487C75.035 998.308 72.3487 995.622 72.3487 992.308V929.414C72.3487 926.1 75.035 923.414 78.3487 923.414H136.919Z" fill="#00A7A0"/>
</svg>
