<svg width="249" height="300" viewBox="0 0 249 300" fill="none" xmlns="http://www.w3.org/2000/svg">
<path d="M48.9776 335.162L44.3847 329.456C74.3463 304.941 78.8978 269.644 88.2018 234.023C96.9766 200.429 129.745 166.024 166.472 152.384C194.395 142.015 226.515 123.252 259.338 86.4302C310.712 28.7885 354.241 25.6979 354.241 25.6979L361.504 34.721C361.504 34.721 319.256 40.3904 268.676 94.9348C236.762 129.348 205.297 147.515 177.355 156.789C138.143 169.803 108.703 205.328 98.5825 239.696C94.8442 252.427 92.013 264.994 86.4286 276.819C75.2423 300.516 66.6698 320.688 48.9776 335.162Z" fill="url(#paint0_linear_341_919)"/>
<path d="M58.2096 346.633L53.5857 340.891C69.5038 327.865 77.381 308.496 94.0076 282.743C101.433 271.243 104.765 258.36 108.978 245.387C120.45 210.242 146.539 173.528 188.259 161.21C216.206 152.956 247.053 135.463 278.035 103.459C327.85 52.0034 368.785 43.7645 368.785 43.7645L376.078 52.8222C376.078 52.8222 336.485 63.6303 287.401 112.002C257.371 141.595 227.124 158.346 199.175 165.643C154.936 177.197 132.206 215.175 119.388 251.094C114.699 264.312 110.57 277.569 101.598 288.685C79.0011 316.676 72.3608 335.053 58.2096 346.633Z" fill="url(#paint1_linear_341_919)"/>
<path d="M67.4875 358.151L62.8422 352.384C75.2275 342.253 80.2311 324.794 109.199 294.634C119.544 283.86 124.647 270.271 129.808 256.812C143.974 220.118 163.348 180.801 210.098 170.095C238.058 163.691 267.724 147.748 296.78 120.554C345.171 75.2689 383.383 61.8891 383.383 61.8891L390.697 70.9718C390.697 70.9718 353.901 86.9347 306.178 129.114C278.119 153.912 249.022 168.991 221.041 174.551C171.794 184.334 155.76 225.074 140.244 262.541C134.606 276.243 128.464 290.086 116.815 300.597C81.243 332.683 78.1012 349.466 67.4875 358.151Z" fill="url(#paint2_linear_341_919)"/>
<path d="M76.7949 369.714L72.1377 363.928C80.9832 356.693 82.1783 340.295 124.429 306.571C137.375 296.24 144.562 282.23 150.68 268.283C167.546 230.037 180.262 187.803 231.978 179.024C259.996 174.268 288.538 160.109 315.573 137.69C362.679 98.632 398.017 80.0649 398.017 80.0649L405.344 89.1677C405.344 89.1677 371.496 110.372 324.979 146.274C298.986 166.334 270.995 179.517 242.93 183.504C188.769 191.207 179.333 235.016 161.124 274.035C154.531 288.223 146.311 302.332 132.055 312.554C83.1163 347.642 83.8723 363.924 76.7949 369.714Z" fill="url(#paint3_linear_341_919)"/>
<path d="M84.5736 379.371L81.2438 375.238C86.5518 370.896 83.8987 354.501 139.474 318.272C155.08 308.1 164.293 293.952 171.362 279.522C190.922 239.727 197.104 194.267 253.674 187.719C281.8 184.467 309.247 172.323 334.172 154.596C380.141 121.904 412.461 98.0058 412.461 98.0058L418.46 105.455C418.46 105.455 387.688 132.116 342.248 161.53C318.398 176.966 291.5 188.007 263.292 190.55C204.352 195.869 201.385 243.049 180.477 283.62C172.933 298.295 162.759 312.436 145.766 322.606C83.6338 359.791 88.1135 376.475 84.5736 379.371Z" fill="url(#paint4_linear_341_919)"/>
<path d="M90.5665 386.814L87.6617 383.204C89.4298 381.759 83.2063 364.642 151.825 326.634C170.238 316.438 181.336 302.335 189.357 287.416C211.608 246.073 211.405 197.1 272.677 193.075C300.981 191.219 327.306 181.358 350.083 168.16C394.995 142.142 424.218 112.605 424.218 112.605L429.793 119.527C429.793 119.527 368.32 191.754 281.871 195.378C195.428 199 232.723 291.717 157.697 330.444C82.6676 369.168 90.5665 386.814 90.5665 386.814Z" fill="url(#paint5_linear_341_919)"/>
<path d="M100.05 398.596L95.593 393.063C95.593 393.063 92.8531 374.953 163.914 335.403C171.329 331.276 177.667 326.525 183.062 321.38C210.558 295.165 218.613 266.719 232.009 239.907C243.038 217.851 253.309 201.957 287.301 198.477C293.445 197.848 299.704 196.742 306.057 195.496C381.44 180.73 431.272 130.702 436.244 127.54L442.124 134.842C432.183 141.165 385.203 179.441 311.18 196.728C304.482 198.291 298.144 199.862 292.16 200.858C259.212 206.344 253.363 222.052 241.408 244.958C226.918 272.755 216.254 296.175 188.274 324.881C183.017 330.274 176.8 335.304 169.559 339.648C102.514 379.878 100.05 398.596 100.05 398.596Z" fill="url(#paint6_linear_341_919)"/>
<path d="M109.361 410.158L104.638 404.291C104.638 404.291 112.327 384.827 175.334 344.059C182.403 339.485 188.49 334.179 193.615 328.547C222.053 297.3 235.356 278.957 250.939 250.178C263.821 226.416 265.267 210.876 297.151 203.407C302.981 202.04 309.381 200.024 316.43 198.129C388.991 178.572 433.224 151.793 448.133 142.308L454.277 149.941C434.395 162.591 392.83 178.112 321.815 199.695C314.408 201.945 307.952 204.384 302.273 206.123C271.467 215.557 274.415 230.95 260.604 255.568C243.929 285.331 227.951 298.555 199.092 332.386C194.09 338.252 188.15 343.825 181.249 348.642C122.278 389.799 109.361 410.158 109.361 410.158Z" fill="url(#paint7_linear_341_919)"/>
<path d="M119.202 422.38L114.218 416.191C114.218 416.191 132.346 394.802 187.293 353.387C194.024 348.313 199.816 342.477 204.704 336.387C233.936 299.95 252.633 291.865 270.397 261.121C285.139 235.649 277.818 220.38 307.527 209.004C313.06 206.888 319.558 204.052 327.331 201.429C396.757 178.009 435.705 173.552 460.557 157.737L466.963 165.694C437.14 184.667 400.793 178.235 332.978 203.316C324.838 206.326 318.297 209.541 312.912 212.041C284.301 225.329 295.992 240.502 280.32 266.831C261.46 298.564 239.997 301.484 210.439 340.545C205.66 346.859 200.021 352.944 193.463 358.291C142.495 399.831 119.202 422.38 119.202 422.38Z" fill="url(#paint8_linear_341_919)"/>
<path d="M129.504 435.175L124.301 428.714C124.301 428.714 152.688 404.902 199.755 363.333C206.129 357.706 211.618 351.382 216.296 344.845C246.136 303.149 270.412 305.398 290.365 272.683C306.962 245.502 290.904 230.398 318.417 215.223C323.651 212.337 330.233 208.767 338.741 205.347C404.942 178.749 438.693 195.93 473.486 173.792L480.112 182.021C440.346 207.319 409.217 179.506 344.609 207.51C335.736 211.356 329.106 215.254 324.019 218.536C297.601 235.572 318.035 250.631 300.513 278.665C279.465 312.364 252.322 304.942 222.253 349.277C217.671 356.035 212.324 362.581 206.15 368.504C162.879 410.02 129.504 435.175 129.504 435.175Z" fill="url(#paint9_linear_341_919)"/>
<path d="M140.17 448.421L134.797 441.749C134.797 441.749 173.031 415.211 212.626 373.795C218.584 367.567 223.798 360.804 228.296 353.822C258.541 306.856 288.604 319.444 310.743 284.761C329.2 255.867 304.362 240.845 329.711 221.96C334.645 218.284 341.333 214.075 350.566 209.786C413.62 180.47 442.091 218.824 486.828 190.363L493.622 198.801C443.92 230.423 418.161 181.599 356.599 212.156C347.014 216.911 340.257 221.408 335.485 225.479C311.172 246.212 340.441 261.207 321.058 290.951C297.828 326.619 264.803 308.866 234.422 358.461C230.008 365.668 224.899 372.64 219.185 379.182C183.107 420.5 140.17 448.421 140.17 448.421Z" fill="url(#paint10_linear_341_919)"/>
<defs>
<linearGradient id="paint0_linear_341_919" x1="354.949" y1="26.5233" x2="26.2253" y2="308.655" gradientUnits="userSpaceOnUse">
<stop stop-color="white"/>
<stop offset="0.5086" stop-color="#E6E6E6"/>
<stop offset="1" stop-color="white"/>
</linearGradient>
<linearGradient id="paint1_linear_341_919" x1="365.553" y1="39.9959" x2="37.0309" y2="321.954" gradientUnits="userSpaceOnUse">
<stop stop-color="white"/>
<stop offset="0.5086" stop-color="#E6E6E6"/>
<stop offset="1" stop-color="white"/>
</linearGradient>
<linearGradient id="paint2_linear_341_919" x1="376.147" y1="53.4605" x2="47.8271" y2="335.246" gradientUnits="userSpaceOnUse">
<stop stop-color="white"/>
<stop offset="0.5086" stop-color="#E6E6E6"/>
<stop offset="1" stop-color="white"/>
</linearGradient>
<linearGradient id="paint3_linear_341_919" x1="387.089" y1="67.3331" x2="58.9709" y2="348.945" gradientUnits="userSpaceOnUse">
<stop stop-color="white"/>
<stop offset="0.5086" stop-color="#E6E6E6"/>
<stop offset="1" stop-color="white"/>
</linearGradient>
<linearGradient id="paint4_linear_341_919" x1="399.535" y1="82.9443" x2="71.6702" y2="364.339" gradientUnits="userSpaceOnUse">
<stop stop-color="white"/>
<stop offset="0.5086" stop-color="#E6E6E6"/>
<stop offset="1" stop-color="white"/>
</linearGradient>
<linearGradient id="paint5_linear_341_919" x1="410.348" y1="96.4453" x2="82.7014" y2="377.652" gradientUnits="userSpaceOnUse">
<stop stop-color="white"/>
<stop offset="0.5086" stop-color="#E6E6E6"/>
<stop offset="1" stop-color="white"/>
</linearGradient>
<linearGradient id="paint6_linear_341_919" x1="420.942" y1="109.713" x2="93.3925" y2="390.837" gradientUnits="userSpaceOnUse">
<stop stop-color="white"/>
<stop offset="0.5086" stop-color="#E6E6E6"/>
<stop offset="1" stop-color="white"/>
</linearGradient>
<linearGradient id="paint7_linear_341_919" x1="431.962" y1="123.465" x2="104.51" y2="404.505" gradientUnits="userSpaceOnUse">
<stop stop-color="white"/>
<stop offset="0.5086" stop-color="#E6E6E6"/>
<stop offset="1" stop-color="white"/>
</linearGradient>
<linearGradient id="paint8_linear_341_919" x1="442.952" y1="137.225" x2="115.598" y2="418.181" gradientUnits="userSpaceOnUse">
<stop stop-color="white"/>
<stop offset="0.5086" stop-color="#E6E6E6"/>
<stop offset="1" stop-color="white"/>
</linearGradient>
<linearGradient id="paint9_linear_341_919" x1="453.898" y1="150.972" x2="126.644" y2="431.842" gradientUnits="userSpaceOnUse">
<stop stop-color="white"/>
<stop offset="0.5086" stop-color="#E6E6E6"/>
<stop offset="1" stop-color="white"/>
</linearGradient>
<linearGradient id="paint10_linear_341_919" x1="464.799" y1="164.698" x2="137.647" y2="445.481" gradientUnits="userSpaceOnUse">
<stop stop-color="white"/>
<stop offset="0.5086" stop-color="#E6E6E6"/>
<stop offset="1" stop-color="white"/>
</linearGradient>
</defs>
</svg>
