<svg width="187" height="40" viewBox="0 0 187 40" fill="none" xmlns="http://www.w3.org/2000/svg">
<path d="M49.6867 29.8392L42.5024 13.0194H47.6452L53.7008 27.5795H50.673L56.8732 13.0194H61.5819L54.3731 29.8392H49.6867Z" fill="#002934"/>
<path d="M68.2117 30.0551C66.6733 30.0551 65.3331 29.7635 64.1866 29.178C63.04 28.5924 62.1517 27.7932 61.5194 26.7758C60.8872 25.7583 60.571 24.6007 60.571 23.3027C60.571 22.0048 60.8783 20.8493 61.495 19.8297C62.1116 18.8123 62.9643 18.0197 64.053 17.452C65.1416 16.8843 66.3683 16.5993 67.7286 16.5993C69.011 16.5993 70.1798 16.8598 71.2373 17.3808C72.2948 17.9017 73.1363 18.6653 73.7597 19.6761C74.3853 20.6846 74.6969 21.9113 74.6969 23.3517C74.6969 23.512 74.688 23.6968 74.6725 23.9038C74.6569 24.1131 74.6413 24.3046 74.6235 24.4805H64.3157V22.0783H72.1968L70.467 22.7506C70.4825 22.1584 70.3757 21.6464 70.1419 21.2122C69.9104 20.7803 69.5898 20.4442 69.1802 20.2037C68.7727 19.9633 68.2941 19.8431 67.7509 19.8431C67.2054 19.8431 66.729 19.9633 66.3216 20.2037C65.9142 20.4442 65.5958 20.7848 65.3732 21.2256C65.1483 21.6664 65.037 22.1829 65.037 22.7751V23.4719C65.037 24.1131 65.1684 24.6652 65.4333 25.1305C65.6982 25.5958 66.0789 25.952 66.5754 26.1992C67.0719 26.4485 67.664 26.5709 68.3542 26.5709C68.9954 26.5709 69.5431 26.4797 69.9994 26.2949C70.4558 26.1101 70.9078 25.8251 71.3575 25.4422L73.7597 27.9401C73.1341 28.6281 72.366 29.1535 71.4532 29.5141C70.5427 29.8748 69.4607 30.0551 68.2117 30.0551Z" fill="#002934"/>
<path d="M76.8142 29.8392V16.8153H81.1622V20.5154L80.3206 19.4334C80.8171 18.4895 81.4984 17.7793 82.3622 17.3073C83.2282 16.8353 84.2033 16.5993 85.2942 16.5993C86.3027 16.5993 87.2155 16.8042 88.0326 17.2116C88.8496 17.619 89.4952 18.249 89.9672 19.0972C90.4392 19.9455 90.6752 21.043 90.6752 22.39V29.8392H86.109V23.1358C86.109 22.2074 85.9198 21.5306 85.5435 21.1054C85.1673 20.6802 84.6419 20.4687 83.9696 20.4687C83.4887 20.4687 83.0479 20.5777 82.6471 20.7937C82.2464 21.0096 81.9347 21.3436 81.7098 21.7911C81.485 22.2408 81.3737 22.8241 81.3737 23.5454V29.8414H76.8142V29.8392Z" fill="#002934"/>
<path d="M92.1667 20.2037V16.8153H101.609V20.2037H92.1667ZM99.351 30.0551C97.6858 30.0551 96.3878 29.6432 95.4595 28.8173C94.5311 27.9913 94.0658 26.7468 94.0658 25.0815V13.9099H98.6319V25.0348C98.6319 25.5001 98.7611 25.863 99.0171 26.1279C99.2731 26.3928 99.6026 26.5242 100.001 26.5242C100.547 26.5242 101.01 26.3884 101.395 26.1145L102.524 29.3093C102.138 29.5653 101.666 29.7545 101.105 29.8748C100.544 29.995 99.9588 30.0551 99.351 30.0551Z" fill="#002934"/>
<path d="M104.276 29.8392V16.8153H108.624V20.6111L107.976 19.5314C108.361 18.554 108.984 17.8216 109.85 17.334C110.716 16.8465 111.765 16.6016 112.998 16.6016V20.7091C112.789 20.6779 112.609 20.6579 112.457 20.649C112.306 20.6401 112.141 20.6379 111.965 20.6379C111.037 20.6379 110.284 20.8894 109.708 21.3948C109.131 21.9002 108.842 22.7194 108.842 23.8571V29.8392H104.276Z" fill="#002934"/>
<path d="M118.188 30.0551C117.146 30.0551 116.267 29.8792 115.545 29.5275C114.824 29.1757 114.276 28.6948 113.9 28.0848C113.524 27.4771 113.334 26.7958 113.334 26.0433C113.334 25.2418 113.539 24.5495 113.947 23.9662C114.356 23.3807 114.984 22.9332 115.832 22.6215C116.681 22.3098 117.778 22.154 119.125 22.154H122.2V24.5317H119.748C119.012 24.5317 118.495 24.6519 118.199 24.8923C117.903 25.1328 117.754 25.4533 117.754 25.8541C117.754 26.2548 117.905 26.5754 118.21 26.8158C118.515 27.0563 118.931 27.1765 119.459 27.1765C119.956 27.1765 120.407 27.0518 120.817 26.8047C121.227 26.5554 121.525 26.1769 121.719 25.6626L122.344 27.3435C122.104 28.2407 121.636 28.9175 120.94 29.3739C120.243 29.8258 119.325 30.0551 118.188 30.0551ZM122.033 29.8392V27.4125L121.721 26.8114V22.3432C121.721 21.6219 121.501 21.0653 121.06 20.6735C120.619 20.2816 119.918 20.0857 118.958 20.0857C118.333 20.0857 117.7 20.1859 117.059 20.3863C116.418 20.5866 115.872 20.8627 115.425 21.2145L113.887 18.1154C114.623 17.6346 115.507 17.2628 116.54 16.9978C117.573 16.7329 118.602 16.6016 119.628 16.6016C121.743 16.6016 123.38 17.0869 124.542 18.0553C125.704 19.0238 126.283 20.5421 126.283 22.6081V29.8392H122.033Z" fill="#002934"/>
<path d="M137.795 30.1753C136.466 30.1753 135.233 29.9638 134.095 29.5386C132.957 29.1134 131.975 28.5101 131.152 27.7242C130.326 26.9405 129.682 26.0144 129.217 24.9502C128.752 23.886 128.52 22.7128 128.52 21.4304C128.52 20.1481 128.752 18.977 129.217 17.9106C129.682 16.8464 130.33 15.9203 131.163 15.1366C131.996 14.353 132.984 13.7474 134.131 13.3222C135.275 12.897 136.528 12.6855 137.891 12.6855C139.476 12.6855 140.894 12.9504 142.143 13.4781C143.392 14.0057 144.425 14.7671 145.242 15.76L142.214 18.4984C141.638 17.8728 141.016 17.4052 140.353 17.0936C139.687 16.7819 138.948 16.626 138.131 16.626C137.41 16.626 136.753 16.7374 136.161 16.9622C135.569 17.1871 135.063 17.5121 134.647 17.9351C134.231 18.3603 133.906 18.8635 133.674 19.449C133.443 20.0345 133.325 20.6935 133.325 21.4304C133.325 22.1361 133.44 22.784 133.674 23.3762C133.906 23.9684 134.231 24.4782 134.647 24.9012C135.063 25.3264 135.564 25.6537 136.148 25.8875C136.733 26.119 137.376 26.237 138.082 26.237C138.788 26.237 139.476 26.1212 140.148 25.8875C140.821 25.6559 141.502 25.2596 142.19 24.6986L144.857 28.0381C143.895 28.7282 142.782 29.2559 141.517 29.6232C140.253 29.9905 139.011 30.1753 137.795 30.1753ZM144.859 28.0358L140.654 27.4103V21.0697H144.859V28.0358Z" fill="#002934"/>
<path d="M151.778 30.0551C150.736 30.0551 149.857 29.8792 149.136 29.5275C148.414 29.1757 147.867 28.6948 147.491 28.0848C147.114 27.4771 146.925 26.7958 146.925 26.0433C146.925 25.2418 147.13 24.5495 147.537 23.9662C147.947 23.3807 148.575 22.9332 149.423 22.6215C150.271 22.3098 151.369 22.154 152.716 22.154H155.79V24.5317H153.339C152.602 24.5317 152.086 24.6519 151.79 24.8923C151.493 25.1328 151.344 25.4533 151.344 25.8541C151.344 26.2548 151.496 26.5754 151.801 26.8158C152.106 27.0563 152.522 27.1765 153.05 27.1765C153.546 27.1765 153.998 27.0518 154.408 26.8047C154.817 26.5554 155.116 26.1769 155.309 25.6626L155.935 27.3435C155.694 28.2407 155.227 28.9175 154.53 29.3739C153.831 29.8258 152.914 30.0551 151.778 30.0551ZM155.621 29.8392V27.4125L155.309 26.8114V22.3432C155.309 21.6219 155.089 21.0653 154.648 20.6735C154.207 20.2816 153.506 20.0857 152.546 20.0857C151.921 20.0857 151.289 20.1859 150.647 20.3863C150.006 20.5866 149.461 20.8627 149.013 21.2145L147.475 18.1154C148.212 17.6346 149.096 17.2628 150.129 16.9978C151.162 16.7329 152.19 16.6016 153.217 16.6016C155.332 16.6016 156.968 17.0869 158.13 18.0553C159.292 19.0238 159.871 20.5421 159.871 22.6081V29.8392H155.621Z" fill="#002934"/>
<path d="M161.387 20.2037V16.8153H170.829V20.2037H161.387ZM168.571 30.0551C166.906 30.0551 165.608 29.6432 164.68 28.8173C163.751 27.9913 163.286 26.7468 163.286 25.0815V13.9099H167.852V25.0348C167.852 25.5001 167.981 25.863 168.237 26.1279C168.493 26.3928 168.823 26.5242 169.221 26.5242C169.767 26.5242 170.23 26.3884 170.615 26.1145L171.744 29.3093C171.359 29.5653 170.887 29.7545 170.326 29.8748C169.765 29.995 169.181 30.0551 168.571 30.0551Z" fill="#002934"/>
<path d="M179.937 30.0551C178.398 30.0551 177.058 29.7635 175.911 29.178C174.765 28.5924 173.877 27.7932 173.244 26.7758C172.612 25.7583 172.296 24.6007 172.296 23.3027C172.296 22.0048 172.603 20.8493 173.22 19.8297C173.837 18.8123 174.689 18.0197 175.778 17.452C176.867 16.8843 178.093 16.5993 179.453 16.5993C180.736 16.5993 181.905 16.8598 182.962 17.3808C184.02 17.9017 184.861 18.6653 185.485 19.6761C186.11 20.6846 186.422 21.9113 186.422 23.3517C186.422 23.512 186.413 23.6968 186.397 23.9038C186.382 24.1131 186.366 24.3046 186.348 24.4805H176.041V22.0783H183.922L182.192 22.7506C182.207 22.1584 182.101 21.6464 181.867 21.2122C181.635 20.7803 181.315 20.4442 180.905 20.2037C180.498 19.9633 180.019 19.8431 179.476 19.8431C178.93 19.8431 178.454 19.9633 178.046 20.2037C177.639 20.4442 177.321 20.7848 177.098 21.2256C176.873 21.6664 176.762 22.1829 176.762 22.7751V23.4719C176.762 24.1131 176.893 24.6652 177.158 25.1305C177.423 25.5958 177.804 25.952 178.3 26.1992C178.797 26.4485 179.389 26.5709 180.079 26.5709C180.72 26.5709 181.268 26.4797 181.724 26.2949C182.181 26.1101 182.633 25.8251 183.082 25.4422L185.485 27.9401C184.859 28.6281 184.091 29.1535 183.178 29.5141C182.268 29.8748 181.186 30.0551 179.937 30.0551Z" fill="#002934"/>
<path d="M14.2126 23.0244C14.5688 23.6322 14.9763 24.2111 15.4104 24.761C15.6775 23.9417 15.9447 23.1246 16.2119 22.3053C16.6794 20.8404 17.1536 19.3822 17.6256 17.9307L17.7257 17.6234C18.2489 16.0539 18.7944 14.4732 19.3576 12.9148C19.391 12.8302 19.4244 12.7478 19.4623 12.6699C19.5357 12.4139 19.6181 12.169 19.7138 11.9241C20.1101 10.8889 20.6711 9.96494 21.3902 9.18573C22.1027 8.41097 22.9665 7.78761 23.9616 7.33122C24.959 6.87483 26.0722 6.64106 27.2632 6.64106C28.2094 6.64106 29.1111 6.79245 29.9526 7.08187C30.7763 7.36684 31.5667 7.76757 32.2902 8.28408C32.4973 8.40652 32.5908 8.4132 32.613 8.4132C32.6843 8.39094 32.8023 8.30189 32.9759 8.09484L36.282 3.31942C36.4044 3.11237 36.3599 3.03 36.3443 2.98993C36.2597 2.83854 36.1284 2.71164 35.9659 2.61591C34.6969 1.76323 33.3499 1.1176 31.9362 0.672344C30.5248 0.229309 28.9975 0 27.4057 0C25.9965 0 24.634 0.184783 23.3427 0.552123C22.0403 0.923916 20.8092 1.43597 19.6849 2.08827C18.5606 2.74503 17.5187 3.55318 16.6015 4.4771C15.682 5.40769 14.8761 6.45405 14.2126 7.58947C13.5492 8.72488 13.026 9.94935 12.6765 11.2473C12.3136 12.5452 12.1355 13.9144 12.1355 15.3214C12.1355 16.7195 12.3136 18.0932 12.6765 19.3844C13.026 20.6824 13.5492 21.9068 14.2126 23.0244Z" fill="#00A7A0"/>
<path d="M36.6917 12.9927H30.5338H28.1561H26.1413H21.6842C21.3057 12.9927 21.0875 13.1374 20.9607 13.4892C20.4419 14.9318 19.941 16.3834 19.4579 17.826C19.4178 17.9373 19.3867 18.0442 19.3466 18.1555C18.839 19.7095 18.3336 21.2679 17.8327 22.8263C17.4654 23.9617 17.098 25.0927 16.724 26.2214C16.5904 26.6511 16.4457 27.0785 16.3054 27.5082C15.7979 29.0555 15.248 30.6362 14.6914 32.1901L14.2684 33.3589L7.60951 13.4825C7.48038 13.1419 7.28224 12.9927 6.94607 12.9927H0.329493C0 12.9927 0 13.0706 0 13.1374C0.0333946 13.222 0.051205 13.3111 0.0623365 13.3934L10.2165 39.9978H18.3492L22.3009 29.6989L24.7164 23.4074L26.1635 19.6271H27.9891H30.6273V23.3517L30.2822 23.4252C29.7412 23.5298 29.2247 23.6255 28.7572 23.6923C27.9713 23.8103 27.1765 23.8326 26.4017 23.7547L23.9417 30.1798C25.7962 30.6094 27.7887 30.6696 29.8881 30.4247C30.7408 30.3178 31.5913 30.162 32.4217 29.9683C33.2521 29.7679 34.058 29.5119 34.8105 29.2002C35.563 28.8996 36.2465 28.5323 36.8654 28.1204C37.2394 27.8978 37.2728 27.6974 37.2728 27.5683V19.6293V17.619V13.5782C37.2706 13.2487 37.0101 12.9927 36.6917 12.9927Z" fill="#00A7A0"/>
</svg>
